<svg width="16" height="17" viewBox="0 0 16 17" fill="none" xmlns="http://www.w3.org/2000/svg">
<path fill-rule="evenodd" clip-rule="evenodd" d="M3.43847 1.08337C3.44784 1.08338 3.45723 1.08338 3.46666 1.08338L8.56152 1.08337C8.91078 1.08336 9.21696 1.08335 9.47013 1.10403C9.73885 1.12599 10.0132 1.17493 10.2791 1.31045C10.6711 1.51018 10.9899 1.82889 11.1896 2.2209C11.3251 2.48685 11.3741 2.76119 11.396 3.0299C11.4167 3.28308 11.4167 3.58927 11.4167 3.93854V5.08338L12.5615 5.08337C12.9108 5.08336 13.217 5.08335 13.4701 5.10403C13.7389 5.12599 14.0132 5.17493 14.2791 5.31045C14.6712 5.51018 14.9899 5.82889 15.1896 6.2209C15.3251 6.48685 15.3741 6.76119 15.396 7.0299C15.4167 7.28308 15.4167 7.58927 15.4167 7.93854V13.0615C15.4167 13.4108 15.4167 13.717 15.396 13.9702C15.3741 14.2389 15.3251 14.5132 15.1896 14.7792C14.9899 15.1712 14.6711 15.4899 14.2791 15.6896C14.0132 15.8252 13.7389 15.8741 13.4701 15.8961C13.217 15.9167 12.9108 15.9167 12.5615 15.9167H7.4385C7.08923 15.9167 6.78304 15.9167 6.52986 15.8961C6.26114 15.8741 5.98681 15.8252 5.72085 15.6896C5.32885 15.4899 5.01014 15.1712 4.8104 14.7792C4.67489 14.5132 4.62594 14.2389 4.60399 13.9702C4.5833 13.717 4.58331 13.4108 4.58333 13.0616L4.58333 11.9167H3.4385C3.08923 11.9167 2.78304 11.9167 2.52986 11.8961C2.26114 11.8741 1.98681 11.8252 1.72085 11.6896C1.32885 11.4899 1.01014 11.1712 0.8104 10.7792C0.674887 10.5132 0.625941 10.2389 0.603986 9.97018C0.583301 9.71701 0.583314 9.41083 0.583329 9.06157L0.58333 3.96671C0.58333 3.95728 0.583329 3.94788 0.583329 3.93852C0.583314 3.58926 0.583301 3.28308 0.603986 3.0299C0.625941 2.76119 0.674887 2.48685 0.8104 2.2209C1.01014 1.82889 1.32885 1.51018 1.72085 1.31045C1.98681 1.17493 2.26114 1.12599 2.52986 1.10403C2.78303 1.08335 3.08921 1.08336 3.43847 1.08337ZM6.08333 13.0334C6.08333 13.4191 6.08391 13.6633 6.099 13.848C6.11338 14.024 6.1371 14.0789 6.14691 14.0982C6.20284 14.208 6.29207 14.2972 6.40184 14.3531C6.42109 14.3629 6.47605 14.3867 6.65201 14.401C6.83672 14.4161 7.08092 14.4167 7.46666 14.4167H12.5333C12.9191 14.4167 13.1633 14.4161 13.348 14.401C13.5239 14.3867 13.5789 14.3629 13.5982 14.3531C13.7079 14.2972 13.7972 14.208 13.8531 14.0982C13.8629 14.0789 13.8866 14.024 13.901 13.848C13.9161 13.6633 13.9167 13.4191 13.9167 13.0334V7.96671C13.9167 7.58097 13.9161 7.33676 13.901 7.15205C13.8866 6.9761 13.8629 6.92114 13.8531 6.90188C13.7972 6.79212 13.7079 6.70288 13.5982 6.64696C13.5789 6.63714 13.5239 6.61343 13.348 6.59905C13.1633 6.58396 12.9191 6.58338 12.5333 6.58338H7.46666C7.08092 6.58338 6.83672 6.58396 6.65201 6.59905C6.47605 6.61343 6.42109 6.63714 6.40184 6.64696C6.29207 6.70288 6.20284 6.79212 6.14691 6.90188C6.1371 6.92114 6.11338 6.9761 6.099 7.15205C6.08391 7.33676 6.08333 7.58097 6.08333 7.96671V13.0334ZM9.91666 5.08338L7.43848 5.08337C7.08921 5.08336 6.78303 5.08335 6.52986 5.10403C6.26114 5.12599 5.98681 5.17493 5.72085 5.31045C5.32885 5.51018 5.01014 5.82889 4.8104 6.2209C4.67489 6.48685 4.62594 6.76119 4.60399 7.0299C4.5833 7.28308 4.58331 7.58926 4.58333 7.93852L4.58333 10.4167H3.46666C3.08092 10.4167 2.83672 10.4161 2.65201 10.401C2.47605 10.3867 2.42109 10.3629 2.40184 10.3531C2.29207 10.2972 2.20284 10.208 2.14691 10.0982C2.1371 10.0789 2.11338 10.024 2.099 9.84803C2.08391 9.66332 2.08333 9.41912 2.08333 9.03338V3.96671C2.08333 3.58097 2.08391 3.33676 2.099 3.15205C2.11338 2.9761 2.1371 2.92114 2.14691 2.90188C2.20284 2.79212 2.29207 2.70288 2.40184 2.64696C2.42109 2.63714 2.47605 2.61343 2.65201 2.59905C2.83672 2.58396 3.08092 2.58338 3.46666 2.58338H8.53333C8.91907 2.58338 9.16328 2.58396 9.34799 2.59905C9.52394 2.61343 9.5789 2.63714 9.59816 2.64696C9.70792 2.70288 9.79716 2.79212 9.85308 2.90188C9.8629 2.92114 9.88661 2.9761 9.90099 3.15205C9.91608 3.33676 9.91666 3.58097 9.91666 3.96671V5.08338Z" fill="#30FF2C"/>
</svg>
