<svg width="29" height="28" viewBox="0 0 29 28" fill="none" xmlns="http://www.w3.org/2000/svg">
<path fill-rule="evenodd" clip-rule="evenodd" d="M16.9036 9.97416C17.7533 9.54707 18.8345 8.91837 19.917 8.057C20.1453 8.53477 20.1703 8.95169 20.0527 9.28835C19.9693 9.5256 19.8123 9.73196 19.6058 9.89613C19.3822 10.0736 19.103 10.2027 18.7942 10.2725C18.2085 10.4055 17.5246 10.3279 16.9036 9.97416ZM17.0509 14.3502L18.1757 15.0051C15.8791 16.3026 15.2547 18.7119 14.513 21.0586C13.7715 18.7119 13.147 16.3026 10.8505 15.0051L11.9753 14.3502C12.0841 14.3087 12.1771 14.2336 12.241 14.1356C12.3048 14.0376 12.3363 13.9218 12.3308 13.8047C12.2278 11.6069 12.8165 10.6351 13.6105 10.0248C13.8954 9.80625 14.2063 9.69649 14.513 9.69649C14.8198 9.69649 15.1307 9.80625 15.4156 10.0248C16.2097 10.6351 16.7984 11.6069 16.6954 13.8047C16.6899 13.9218 16.7214 14.0376 16.7852 14.1356C16.8491 14.2336 16.9421 14.3087 17.0509 14.3502ZM14.513 0C15.8132 0.0351867 17.1167 0.289613 18.2479 0.78456C19.0312 1.12775 19.7621 1.58107 20.424 2.12315C20.7229 2.36787 20.969 2.60428 21.2401 2.87644C21.9713 2.90192 23.0399 2.08311 23.536 1.31693C22.6822 4.1384 18.7861 7.47031 16.0888 8.74524C16.0877 8.74477 16.0869 8.74412 16.0861 8.74356C15.602 8.37097 15.0576 8.18468 14.513 8.18468C13.9685 8.18468 13.4242 8.37097 12.9401 8.74356C12.9392 8.74403 12.9385 8.74487 12.9374 8.74524C10.24 7.47031 6.34397 4.1384 5.49017 1.31693C5.98619 2.08311 7.0548 2.90192 7.78601 2.87644C8.05721 2.60437 8.30332 2.36787 8.60212 2.12315C9.26397 1.58107 9.9949 1.12775 10.7782 0.78456C11.9095 0.289613 13.213 0.0351867 14.513 0ZM12.1225 9.97416C11.2729 9.54707 10.1916 8.91837 9.10915 8.057C8.88091 8.53477 8.85591 8.95169 8.97341 9.28835C9.05684 9.5256 9.21388 9.73196 9.42027 9.89613C9.64397 10.0736 9.92323 10.2027 10.2319 10.2725C10.8177 10.4055 11.5015 10.3279 12.1225 9.97416Z" fill="black"/>
<path fill-rule="evenodd" clip-rule="evenodd" d="M21.1026 7.00164C21.6985 6.39544 22.2236 5.72447 22.6458 5.12573L22.8603 5.53257C23.5506 6.92483 23.9093 8.31148 23.9093 9.87201L23.9079 12.3483L23.9208 13.632C23.9708 16.7835 24.6473 19.9721 26.1797 22.8901L22.9735 20.284L20.7049 23.9948L18.3216 21.7333L14.513 27.9632L10.7045 21.7334L8.32128 23.9949L6.05267 20.2841L2.84637 22.8901C4.37878 19.9722 5.05526 16.7836 5.10536 13.6321L5.11832 12.3484L5.11684 9.87211C5.11684 8.31148 5.47545 6.92483 6.166 5.53267L6.38036 5.12583C6.80258 5.72456 7.32758 6.39544 7.9236 7.00173L7.73748 7.3914C7.37591 8.14824 7.25619 8.99449 7.53786 9.7993C7.71943 10.3177 8.05082 10.7622 8.47804 11.1016C8.89285 11.4311 9.38378 11.6533 9.89776 11.7699C10.2326 11.8459 10.5737 11.8772 10.9126 11.8665C10.8335 12.3184 10.799 12.787 10.7967 13.2645L7.7723 15.0253L10.1062 16.344C10.2927 16.4494 10.4703 16.5702 10.6371 16.7051C12.5613 18.4465 13.7181 23.5983 14.5131 26.1146C15.3082 23.5983 16.465 18.4465 18.3892 16.7051C18.556 16.5702 18.7336 16.4494 18.9202 16.344L21.2541 15.0253L18.2295 13.2645C18.2273 12.787 18.1928 12.3184 18.1137 11.8665C18.4526 11.8772 18.7937 11.8459 19.1285 11.7699C19.6425 11.6533 20.1335 11.4311 20.5482 11.1016C20.9754 10.7622 21.3068 10.3177 21.4883 9.7993C21.7701 8.99449 21.6503 8.14833 21.2888 7.3914L21.1027 7.00173L21.1026 7.00164Z" fill="black"/>
</svg>
