<svg width="186" height="220" viewBox="0 0 186 220" fill="none" xmlns="http://www.w3.org/2000/svg">
<g opacity="0.7">
<path d="M38.1475 131.217C36.9775 132.377 35.0875 132.378 33.9175 131.198C32.7575 130.028 32.7575 128.137 33.9375 126.967C35.1075 125.807 36.9975 125.808 38.1675 126.988C39.3275 128.168 39.3275 130.057 38.1475 131.217Z" fill="#30FF2C"/>
<path d="M54.6776 131.217C53.5076 132.377 51.6175 132.378 50.4475 131.198C49.2875 130.028 49.2875 128.137 50.4675 126.967C51.6375 125.807 53.5275 125.808 54.6975 126.988C55.8575 128.168 55.8476 130.057 54.6776 131.217Z" fill="#30FF2C" stroke="#30FF2C" stroke-width="0.5" stroke-miterlimit="10"/>
<path d="M71.2075 131.217C70.0375 132.377 68.1475 132.378 66.9775 131.198C65.8175 130.028 65.8175 128.137 66.9975 126.967C68.1675 125.807 70.0575 125.808 71.2275 126.988C72.3875 128.168 72.3775 130.057 71.2075 131.217Z" fill="#30FF2C"/>
<path d="M87.7276 131.217C86.5576 132.377 84.6675 132.378 83.4975 131.198C82.3375 130.028 82.3375 128.137 83.5175 126.967C84.6875 125.807 86.5775 125.808 87.7475 126.988C88.9075 128.168 88.9076 130.057 87.7276 131.217Z" fill="#30FF2C" stroke="#30FF2C" stroke-width="0.5" stroke-miterlimit="10"/>
<path d="M104.258 131.217C103.088 132.377 101.198 132.378 100.028 131.198C98.8675 130.028 98.8676 128.137 100.048 126.967C101.218 125.807 103.108 125.808 104.278 126.988C105.438 128.168 105.428 130.057 104.258 131.217Z" fill="#30FF2C"/>
<path d="M120.788 131.217C119.618 132.377 117.728 132.378 116.558 131.198C115.398 130.028 115.398 128.137 116.578 126.967C117.748 125.807 119.638 125.808 120.808 126.988C121.968 128.168 121.958 130.057 120.788 131.217Z" fill="#30FF2C"/>
<path d="M12.4276 171.947C11.2576 173.107 9.36752 173.107 8.19752 171.927C7.03752 170.757 7.03754 168.867 8.21754 167.697C9.38754 166.537 11.2775 166.537 12.4475 167.717C13.6075 168.887 13.5976 170.777 12.4276 171.947Z" fill="#30FF2C" stroke="#30FF2C" stroke-width="0.5" stroke-miterlimit="10"/>
<path d="M28.9575 171.947C27.7875 173.107 25.8975 173.107 24.7275 171.927C23.5675 170.757 23.5675 168.867 24.7475 167.697C25.9175 166.537 27.8075 166.537 28.9775 167.717C30.1375 168.887 30.1275 170.777 28.9575 171.947Z" fill="#30FF2C"/>
<path d="M45.4876 171.947C44.3176 173.107 42.4275 173.107 41.2575 171.927C40.0975 170.757 40.0975 168.867 41.2775 167.697C42.4475 166.537 44.3375 166.537 45.5075 167.717C46.6575 168.887 46.6576 170.777 45.4876 171.947Z" fill="#30FF2C" stroke="#30FF2C" stroke-width="0.5" stroke-miterlimit="10"/>
<path d="M62.0075 171.947C60.8375 173.107 58.9475 173.107 57.7775 171.927C56.6175 170.757 56.6176 168.867 57.7976 167.697C58.9676 166.537 60.8575 166.537 62.0275 167.717C63.1875 168.887 63.1775 170.777 62.0075 171.947Z" fill="#30FF2C"/>
<path d="M78.5376 171.947C77.3676 173.107 75.4775 173.107 74.3075 171.927C73.1475 170.757 73.1475 168.867 74.3275 167.697C75.4975 166.537 77.3875 166.537 78.5575 167.717C79.7175 168.887 79.7076 170.777 78.5376 171.947Z" fill="#30FF2C"/>
<path d="M137.308 131.217C136.138 132.377 134.248 132.378 133.078 131.198C131.918 130.028 131.918 128.137 133.098 126.967C134.268 125.807 136.158 125.808 137.328 126.988C138.488 128.168 138.478 130.057 137.308 131.217Z" fill="#30FF2C" stroke="#30FF2C" stroke-width="0.5" stroke-miterlimit="10"/>
<path d="M153.838 131.217C152.668 132.377 150.778 132.378 149.608 131.198C148.448 130.028 148.447 128.137 149.627 126.967C150.797 125.807 152.688 125.808 153.858 126.988C155.018 128.168 155.008 130.057 153.838 131.217Z" fill="#30FF2C" stroke="#30FF2C" stroke-width="0.5" stroke-miterlimit="10"/>
<path d="M170.368 131.217C169.198 132.377 167.308 132.378 166.138 131.198C164.978 130.028 164.978 128.137 166.158 126.967C167.328 125.807 169.218 125.808 170.388 126.988C171.548 128.168 171.538 130.057 170.368 131.217Z" fill="#30FF2C"/>
<path d="M54.8475 114.517C53.6775 115.677 51.7875 115.677 50.6175 114.497C49.4575 113.327 49.4575 111.438 50.6375 110.267C51.8075 109.108 53.6975 109.107 54.8675 110.287C56.0375 111.467 56.0175 113.358 54.8475 114.517Z" fill="#30FF2C"/>
<path d="M71.3775 114.517C70.2075 115.677 68.3175 115.677 67.1475 114.497C65.9875 113.327 65.9876 111.438 67.1676 110.267C68.3376 109.108 70.2275 109.107 71.3975 110.287C72.5675 111.467 72.5475 113.358 71.3775 114.517Z" fill="#30FF2C" stroke="#30FF2C" stroke-width="0.5" stroke-miterlimit="10"/>
<path d="M87.9075 114.517C86.7375 115.677 84.8475 115.677 83.6775 114.497C82.5175 113.327 82.5175 111.438 83.6975 110.267C84.8675 109.108 86.7575 109.107 87.9275 110.287C89.0775 111.467 89.0775 113.358 87.9075 114.517Z" fill="#30FF2C"/>
<path d="M104.428 114.517C103.258 115.677 101.368 115.677 100.198 114.497C99.0375 113.327 99.0375 111.438 100.218 110.267C101.388 109.108 103.278 109.107 104.448 110.287C105.608 111.467 105.598 113.358 104.428 114.517Z" fill="#30FF2C" stroke="#30FF2C" stroke-width="0.5" stroke-miterlimit="10"/>
<path d="M120.958 114.517C119.788 115.677 117.898 115.677 116.728 114.497C115.568 113.327 115.567 111.438 116.747 110.267C117.917 109.108 119.808 109.107 120.978 110.287C122.148 111.467 122.128 113.358 120.958 114.517Z" fill="#30FF2C"/>
<path d="M137.488 114.517C136.318 115.677 134.428 115.677 133.258 114.497C132.098 113.327 132.098 111.438 133.278 110.267C134.448 109.108 136.338 109.107 137.508 110.287C138.678 111.467 138.658 113.358 137.488 114.517Z" fill="#30FF2C"/>
<path d="M154.008 114.517C152.838 115.677 150.948 115.677 149.778 114.497C148.618 113.327 148.618 111.438 149.798 110.267C150.968 109.108 152.858 109.107 154.028 110.287C155.188 111.467 155.178 113.358 154.008 114.517Z" fill="#30FF2C" stroke="#30FF2C" stroke-width="0.5" stroke-miterlimit="10"/>
<path d="M170.538 114.517C169.368 115.677 167.478 115.677 166.308 114.497C165.148 113.327 165.148 111.438 166.328 110.267C167.498 109.108 169.388 109.107 170.558 110.287C171.728 111.467 171.708 113.358 170.538 114.517Z" fill="#30FF2C" stroke="#30FF2C" stroke-width="0.5" stroke-miterlimit="10"/>
<path d="M184.778 131.217C183.608 132.377 181.718 132.378 180.548 131.198C179.388 130.028 179.387 128.137 180.567 126.967C181.737 125.807 183.628 125.808 184.798 126.988C185.958 128.168 185.948 130.057 184.778 131.217Z" fill="#30FF2C"/>
<path d="M11.6076 143.397C10.4376 144.557 8.54752 144.558 7.37752 143.378C6.21752 142.208 6.21754 140.317 7.39754 139.147C8.56754 137.987 10.4575 137.987 11.6275 139.167C12.7775 140.347 12.7776 142.237 11.6076 143.397Z" fill="#30FF2C"/>
<path d="M28.1275 143.397C26.9575 144.557 25.0675 144.558 23.8975 143.378C22.7375 142.208 22.7376 140.317 23.9176 139.147C25.0876 137.987 26.9775 137.987 28.1475 139.167C29.3075 140.347 29.2975 142.237 28.1275 143.397Z" fill="#30FF2C" stroke="#30FF2C" stroke-width="0.5" stroke-miterlimit="10"/>
<path d="M44.6575 143.397C43.4875 144.557 41.5975 144.558 40.4275 143.378C39.2675 142.208 39.2675 140.317 40.4475 139.147C41.6175 137.987 43.5075 137.987 44.6775 139.167C45.8375 140.347 45.8275 142.237 44.6575 143.397Z" fill="#30FF2C"/>
<path d="M61.1875 143.397C60.0175 144.557 58.1275 144.558 56.9575 143.378C55.7975 142.208 55.7976 140.317 56.9776 139.147C58.1476 137.987 60.0375 137.987 61.2075 139.167C62.3575 140.347 62.3575 142.237 61.1875 143.397Z" fill="#30FF2C" stroke="#30FF2C" stroke-width="0.5" stroke-miterlimit="10"/>
<path d="M77.7075 143.397C76.5375 144.557 74.6475 144.558 73.4775 143.378C72.3175 142.208 72.3175 140.317 73.4975 139.147C74.6675 137.987 76.5575 137.987 77.7275 139.167C78.8875 140.347 78.8775 142.237 77.7075 143.397Z" fill="#30FF2C"/>
<path d="M94.2376 143.397C93.0676 144.557 91.1775 144.558 90.0075 143.378C88.8475 142.208 88.8475 140.317 90.0275 139.147C91.1975 137.987 93.0875 137.987 94.2575 139.167C95.4175 140.347 95.4076 142.237 94.2376 143.397Z" fill="#30FF2C"/>
<path d="M110.767 143.397C109.597 144.557 107.708 144.558 106.538 143.378C105.378 142.208 105.377 140.317 106.557 139.147C107.727 137.987 109.618 137.987 110.788 139.167C111.938 140.347 111.938 142.237 110.767 143.397Z" fill="#30FF2C" stroke="#30FF2C" stroke-width="0.5" stroke-miterlimit="10"/>
<path d="M127.288 143.397C126.118 144.557 124.228 144.558 123.058 143.378C121.898 142.208 121.898 140.317 123.078 139.147C124.248 137.987 126.138 137.987 127.308 139.167C128.468 140.347 128.458 142.237 127.288 143.397Z" fill="#30FF2C" stroke="#30FF2C" stroke-width="0.5" stroke-miterlimit="10"/>
<path d="M143.818 143.397C142.648 144.557 140.758 144.558 139.588 143.378C138.428 142.208 138.428 140.317 139.608 139.147C140.778 137.987 142.668 137.987 143.838 139.167C144.998 140.347 144.988 142.237 143.818 143.397Z" fill="#30FF2C"/>
<path d="M158.228 143.397C157.058 144.557 155.168 144.558 153.998 143.378C152.838 142.208 152.838 140.317 154.018 139.147C155.188 137.987 157.078 137.987 158.248 139.167C159.408 140.347 159.398 142.237 158.228 143.397Z" fill="#30FF2C"/>
<path d="M86.7675 22.8075C85.5975 23.9675 83.7075 23.9675 82.5375 22.7875C81.3775 21.6175 81.3775 19.7275 82.5575 18.5575C83.7275 17.3975 85.6175 17.3975 86.7875 18.5775C87.9475 19.7575 87.9375 21.6475 86.7675 22.8075Z" fill="#30FF2C" stroke="#30FF2C" stroke-width="0.5" stroke-miterlimit="10"/>
<path d="M103.298 22.8075C102.128 23.9675 100.238 23.9675 99.0675 22.7875C97.9075 21.6175 97.9075 19.7275 99.0875 18.5575C100.258 17.3975 102.148 17.3975 103.318 18.5775C104.468 19.7575 104.468 21.6475 103.298 22.8075Z" fill="#30FF2C"/>
<path d="M119.818 22.8075C118.648 23.9675 116.758 23.9675 115.588 22.7875C114.428 21.6175 114.428 19.7275 115.608 18.5575C116.788 17.3875 118.668 17.3975 119.838 18.5775C120.998 19.7575 120.988 21.6475 119.818 22.8075Z" fill="#30FF2C"/>
<path d="M136.348 22.8075C135.178 23.9675 133.288 23.9675 132.118 22.7875C130.958 21.6175 130.958 19.7275 132.138 18.5575C133.308 17.3975 135.198 17.3975 136.368 18.5775C137.528 19.7575 137.518 21.6475 136.348 22.8075Z" fill="#30FF2C" stroke="#30FF2C" stroke-width="0.5" stroke-miterlimit="10"/>
<path d="M152.878 22.8075C151.708 23.9675 149.818 23.9675 148.648 22.7875C147.488 21.6175 147.488 19.7275 148.668 18.5575C149.838 17.3975 151.728 17.3975 152.898 18.5775C154.048 19.7575 154.048 21.6475 152.878 22.8075Z" fill="#30FF2C" stroke="#30FF2C" stroke-width="0.5" stroke-miterlimit="10"/>
<path d="M86.9375 6.11751C85.7675 7.27751 83.8775 7.27749 82.7075 6.09749C81.5475 4.92749 81.5476 3.03751 82.7276 1.86751C83.8976 0.707506 85.7875 0.707526 86.9575 1.88753C88.1175 3.05753 88.1075 4.94751 86.9375 6.11751Z" fill="#30FF2C"/>
<path d="M103.468 6.11751C102.298 7.27751 100.408 7.27749 99.2376 6.09749C98.0676 4.91749 98.0775 3.03751 99.2575 1.86751C100.428 0.707506 102.318 0.707526 103.488 1.88753C104.648 3.05753 104.638 4.94751 103.468 6.11751Z" fill="#30FF2C" stroke="#30FF2C" stroke-width="0.5" stroke-miterlimit="10"/>
<path d="M119.988 6.11751C118.818 7.27751 116.928 7.27749 115.758 6.09749C114.588 4.91749 114.598 3.03751 115.778 1.86751C116.948 0.707506 118.838 0.707526 120.008 1.88753C121.168 3.05753 121.158 4.94751 119.988 6.11751Z" fill="#30FF2C"/>
<path d="M136.517 6.11751C135.347 7.27751 133.458 7.27749 132.288 6.09749C131.128 4.92749 131.127 3.03751 132.307 1.86751C133.477 0.707506 135.368 0.707526 136.538 1.88753C137.698 3.05753 137.688 4.94751 136.517 6.11751Z" fill="#30FF2C"/>
<path d="M153.048 6.11751C151.878 7.27751 149.988 7.27749 148.818 6.09749C147.658 4.92749 147.658 3.03751 148.838 1.86751C150.008 0.707506 151.898 0.707526 153.068 1.88753C154.218 3.05753 154.218 4.94751 153.048 6.11751Z" fill="#30FF2C" stroke="#30FF2C" stroke-width="0.5" stroke-miterlimit="10"/>
<path d="M93.2675 34.9975C92.0975 36.1575 90.2075 36.1575 89.0375 34.9775C87.8775 33.8075 87.8775 31.9175 89.0575 30.7475C90.2275 29.5875 92.1175 29.5875 93.2875 30.7675C94.4575 31.9475 94.4375 33.8275 93.2675 34.9975Z" fill="#30FF2C"/>
<path d="M109.798 34.9975C108.628 36.1575 106.738 36.1575 105.568 34.9775C104.408 33.8075 104.408 31.9175 105.588 30.7475C106.758 29.5875 108.648 29.5875 109.818 30.7675C110.988 31.9475 110.968 33.8275 109.798 34.9975Z" fill="#30FF2C" stroke="#30FF2C" stroke-width="0.5" stroke-miterlimit="10"/>
<path d="M126.327 34.9975C125.157 36.1575 123.268 36.1575 122.098 34.9775C120.938 33.8075 120.937 31.9175 122.117 30.7475C123.287 29.5875 125.178 29.5875 126.348 30.7675C127.498 31.9375 127.497 33.8275 126.327 34.9975Z" fill="#30FF2C" stroke="#30FF2C" stroke-width="0.5" stroke-miterlimit="10"/>
<path d="M142.848 34.9975C141.678 36.1575 139.788 36.1575 138.618 34.9775C137.458 33.8075 137.458 31.9175 138.638 30.7475C139.808 29.5875 141.698 29.5875 142.868 30.7675C144.028 31.9375 144.018 33.8275 142.848 34.9975Z" fill="#30FF2C"/>
<path d="M157.258 34.9975C156.088 36.1575 154.198 36.1575 153.028 34.9775C151.868 33.8075 151.868 31.9175 153.048 30.7475C154.218 29.5875 156.108 29.5875 157.278 30.7675C158.438 31.9375 158.438 33.8275 157.258 34.9975Z" fill="#30FF2C"/>
<path d="M11.6076 64.8075C10.4376 65.9675 8.54752 65.9675 7.37752 64.7875C6.21752 63.6175 6.21754 61.7275 7.39754 60.5575C8.56754 59.3975 10.4575 59.3975 11.6275 60.5775C12.7775 61.7575 12.7776 63.6475 11.6076 64.8075Z" fill="#30FF2C"/>
<path d="M28.1275 64.8075C26.9575 65.9675 25.0675 65.9675 23.8975 64.7875C22.7375 63.6175 22.7376 61.7275 23.9176 60.5575C25.0876 59.3975 26.9775 59.3975 28.1475 60.5775C29.3075 61.7575 29.2975 63.6475 28.1275 64.8075Z" fill="#30FF2C" stroke="#30FF2C" stroke-width="0.5" stroke-miterlimit="10"/>
<path d="M44.6575 64.8075C43.4875 65.9675 41.5975 65.9675 40.4275 64.7875C39.2675 63.6175 39.2675 61.7275 40.4475 60.5575C41.6175 59.3975 43.5075 59.3975 44.6775 60.5775C45.8375 61.7575 45.8275 63.6475 44.6575 64.8075Z" fill="#30FF2C"/>
<path d="M61.1875 64.8075C60.0175 65.9675 58.1275 65.9675 56.9575 64.7875C55.7975 63.6175 55.7976 61.7275 56.9776 60.5575C58.1476 59.3975 60.0375 59.3975 61.2075 60.5775C62.3575 61.7575 62.3575 63.6475 61.1875 64.8075Z" fill="#30FF2C" stroke="#30FF2C" stroke-width="0.5" stroke-miterlimit="10"/>
<path d="M77.7075 64.8075C76.5375 65.9675 74.6475 65.9675 73.4775 64.7875C72.3175 63.6175 72.3175 61.7275 73.4975 60.5575C74.6675 59.3975 76.5575 59.3975 77.7275 60.5775C78.8875 61.7575 78.8775 63.6475 77.7075 64.8075Z" fill="#30FF2C"/>
<path d="M94.2376 64.8075C93.0676 65.9675 91.1775 65.9675 90.0075 64.7875C88.8475 63.6175 88.8475 61.7275 90.0275 60.5575C91.1975 59.3975 93.0875 59.3975 94.2575 60.5775C95.4175 61.7575 95.4076 63.6475 94.2376 64.8075Z" fill="#30FF2C"/>
<path d="M85.9776 50.2275C84.8076 51.3875 82.9175 51.3875 81.7475 50.2075C80.5875 49.0375 80.5875 47.1475 81.7675 45.9775C82.9375 44.8175 84.8275 44.8175 85.9975 45.9975C87.1475 47.1675 87.1476 49.0675 85.9776 50.2275Z" fill="#30FF2C"/>
<path d="M102.498 50.2275C101.328 51.3875 99.4375 51.3875 98.2675 50.2075C97.1075 49.0375 97.1076 47.1475 98.2876 45.9775C99.4576 44.8175 101.348 44.8175 102.518 45.9975C103.678 47.1675 103.668 49.0675 102.498 50.2275Z" fill="#30FF2C" stroke="#30FF2C" stroke-width="0.5" stroke-miterlimit="10"/>
<path d="M119.028 50.2275C117.858 51.3875 115.968 51.3875 114.798 50.2075C113.638 49.0375 113.637 47.1475 114.817 45.9775C115.987 44.8175 117.878 44.8175 119.048 45.9975C120.208 47.1675 120.198 49.0675 119.028 50.2275Z" fill="#30FF2C"/>
<path d="M135.558 50.2275C134.388 51.3875 132.498 51.3875 131.328 50.2075C130.168 49.0375 130.168 47.1475 131.348 45.9775C132.518 44.8175 134.408 44.8175 135.578 45.9975C136.728 47.1675 136.728 49.0675 135.558 50.2275Z" fill="#30FF2C"/>
<path d="M110.767 64.8075C109.597 65.9675 107.708 65.9675 106.538 64.7875C105.378 63.6175 105.377 61.7275 106.557 60.5575C107.727 59.3975 109.618 59.3975 110.788 60.5775C111.938 61.7575 111.938 63.6475 110.767 64.8075Z" fill="#30FF2C" stroke="#30FF2C" stroke-width="0.5" stroke-miterlimit="10"/>
<path d="M127.288 64.8075C126.118 65.9675 124.228 65.9675 123.058 64.7875C121.898 63.6175 121.898 61.7275 123.078 60.5575C124.248 59.3975 126.138 59.3975 127.308 60.5775C128.468 61.7575 128.458 63.6475 127.288 64.8075Z" fill="#30FF2C" stroke="#30FF2C" stroke-width="0.5" stroke-miterlimit="10"/>
<path d="M143.818 64.8075C142.648 65.9675 140.758 65.9675 139.588 64.7875C138.428 63.6175 138.428 61.7275 139.608 60.5575C140.778 59.3975 142.668 59.3975 143.838 60.5775C144.998 61.7575 144.988 63.6475 143.818 64.8075Z" fill="#30FF2C"/>
<path d="M158.228 64.8075C157.058 65.9675 155.168 65.9675 153.998 64.7875C152.838 63.6175 152.838 61.7275 154.018 60.5575C155.188 59.3975 157.078 59.3975 158.248 60.5775C159.408 61.7575 159.398 63.6475 158.228 64.8075Z" fill="#30FF2C"/>
<path d="M184.778 114.517C183.608 115.677 181.718 115.677 180.548 114.497C179.388 113.327 179.387 111.438 180.567 110.267C181.737 109.108 183.628 109.107 184.798 110.287C185.958 111.467 185.948 113.358 184.778 114.517Z" fill="#30FF2C"/>
<path d="M48.4675 97.1075C47.2975 98.2675 45.4075 98.2675 44.2375 97.0875C43.0775 95.9175 43.0775 94.0275 44.2575 92.8575C45.4275 91.6975 47.3175 91.6975 48.4875 92.8775C49.6475 94.0575 49.6475 95.9475 48.4675 97.1075Z" fill="#30FF2C" stroke="#30FF2C" stroke-width="0.5" stroke-miterlimit="10"/>
<path d="M64.9975 97.1075C63.8275 98.2675 61.9375 98.2675 60.7675 97.0875C59.6075 95.9175 59.6076 94.0275 60.7876 92.8575C61.9576 91.6975 63.8475 91.6975 65.0175 92.8775C66.1875 94.0575 66.1675 95.9475 64.9975 97.1075Z" fill="#30FF2C" stroke="#30FF2C" stroke-width="0.5" stroke-miterlimit="10"/>
<path d="M79.2376 97.1075C78.0676 98.2675 76.1775 98.2675 75.0075 97.0875C73.8475 95.9175 73.8475 94.0275 75.0275 92.8575C76.1975 91.6975 78.0875 91.6975 79.2575 92.8775C80.4175 94.0575 80.4076 95.9475 79.2376 97.1075Z" fill="#30FF2C"/>
<path d="M115.678 79.0775C114.508 80.2375 112.618 80.2375 111.448 79.0575C110.288 77.8875 110.288 75.9975 111.468 74.8275C112.638 73.6675 114.528 73.6675 115.698 74.8475C116.858 76.0175 116.848 77.9175 115.678 79.0775Z" fill="#30FF2C"/>
<path d="M132.208 79.0775C131.038 80.2375 129.148 80.2375 127.978 79.0575C126.818 77.8875 126.817 75.9975 127.997 74.8275C129.167 73.6675 131.058 73.6675 132.228 74.8475C133.388 76.0175 133.378 77.9175 132.208 79.0775Z" fill="#30FF2C"/>
<path d="M148.738 79.0775C147.568 80.2375 145.678 80.2375 144.508 79.0575C143.348 77.8875 143.348 75.9975 144.528 74.8275C145.698 73.6675 147.588 73.6675 148.758 74.8475C149.908 76.0175 149.908 77.9175 148.738 79.0775Z" fill="#30FF2C" stroke="#30FF2C" stroke-width="0.5" stroke-miterlimit="10"/>
<path d="M165.258 79.0775C164.088 80.2375 162.198 80.2375 161.028 79.0575C159.868 77.8875 159.868 75.9975 161.048 74.8275C162.218 73.6675 164.108 73.6675 165.278 74.8475C166.438 76.0175 166.428 77.9175 165.258 79.0775Z" fill="#30FF2C" stroke="#30FF2C" stroke-width="0.5" stroke-miterlimit="10"/>
<path d="M181.788 79.0775C180.618 80.2375 178.728 80.2375 177.558 79.0575C176.398 77.8875 176.398 75.9975 177.578 74.8275C178.748 73.6675 180.638 73.6675 181.808 74.8475C182.968 76.0175 182.958 77.9175 181.788 79.0775Z" fill="#30FF2C"/>
<path d="M5.09755 158.337C3.92755 159.497 2.03751 159.498 0.867506 158.318C-0.292494 157.148 -0.292474 155.257 0.887526 154.087C2.05753 152.927 3.94751 152.927 5.11751 154.107C6.27751 155.277 6.26755 157.167 5.09755 158.337Z" fill="#30FF2C"/>
<path d="M21.6275 158.337C20.4575 159.497 18.5675 159.498 17.3975 158.318C16.2375 157.148 16.2376 155.257 17.4176 154.087C18.5876 152.927 20.4775 152.927 21.6475 154.107C22.8075 155.277 22.7975 157.167 21.6275 158.337Z" fill="#30FF2C"/>
<path d="M38.1475 158.337C36.9775 159.497 35.0875 159.498 33.9175 158.318C32.7575 157.148 32.7575 155.257 33.9375 154.087C35.1075 152.927 36.9975 152.927 38.1675 154.107C39.3275 155.277 39.3275 157.167 38.1475 158.337Z" fill="#30FF2C" stroke="#30FF2C" stroke-width="0.5" stroke-miterlimit="10"/>
<path d="M54.6776 158.337C53.5076 159.497 51.6175 159.498 50.4475 158.318C49.2875 157.148 49.2875 155.257 50.4675 154.087C51.6375 152.927 53.5275 152.927 54.6975 154.107C55.8575 155.277 55.8476 157.167 54.6776 158.337Z" fill="#30FF2C" stroke="#30FF2C" stroke-width="0.5" stroke-miterlimit="10"/>
<path d="M71.2075 158.337C70.0375 159.497 68.1475 159.498 66.9775 158.318C65.8175 157.148 65.8175 155.257 66.9975 154.087C68.1675 152.927 70.0575 152.927 71.2275 154.107C72.3875 155.277 72.3775 157.167 71.2075 158.337Z" fill="#30FF2C"/>
<path d="M96.1676 97.1075C94.9976 98.2675 93.1075 98.2675 91.9375 97.0875C90.7775 95.9175 90.7775 94.0275 91.9575 92.8575C93.1275 91.6975 95.0175 91.6975 96.1875 92.8775C97.3475 94.0575 97.3376 95.9475 96.1676 97.1075Z" fill="#30FF2C" stroke="#30FF2C" stroke-width="0.5" stroke-miterlimit="10"/>
<path d="M112.698 97.1075C111.528 98.2675 109.638 98.2675 108.468 97.0875C107.308 95.9175 107.308 94.0275 108.488 92.8575C109.658 91.6975 111.548 91.6975 112.718 92.8775C113.888 94.0575 113.868 95.9475 112.698 97.1075Z" fill="#30FF2C"/>
<path d="M129.218 97.1075C128.048 98.2675 126.158 98.2675 124.988 97.0875C123.828 95.9175 123.827 94.0275 125.007 92.8575C126.177 91.6975 128.068 91.6975 129.238 92.8775C130.408 94.0575 130.388 95.9475 129.218 97.1075Z" fill="#30FF2C"/>
<path d="M145.748 97.1075C144.578 98.2675 142.688 98.2675 141.518 97.0875C140.358 95.9175 140.358 94.0275 141.538 92.8575C142.708 91.6975 144.598 91.6975 145.768 92.8775C146.928 94.0575 146.918 95.9475 145.748 97.1075Z" fill="#30FF2C" stroke="#30FF2C" stroke-width="0.5" stroke-miterlimit="10"/>
<path d="M162.278 97.1075C161.108 98.2675 159.218 98.2675 158.048 97.0875C156.888 95.9175 156.887 94.0275 158.067 92.8575C159.237 91.6975 161.128 91.6975 162.298 92.8775C163.448 94.0575 163.448 95.9475 162.278 97.1075Z" fill="#30FF2C" stroke="#30FF2C" stroke-width="0.5" stroke-miterlimit="10"/>
<path d="M178.798 97.1075C177.628 98.2675 175.738 98.2675 174.568 97.0875C173.408 95.9175 173.408 94.0275 174.588 92.8575C175.758 91.6975 177.648 91.6975 178.818 92.8775C179.988 94.0575 179.968 95.9475 178.798 97.1075Z" fill="#30FF2C"/>
<path d="M104.258 205.717C103.088 206.877 101.198 206.878 100.028 205.698C98.8675 204.528 98.8676 202.637 100.048 201.467C101.218 200.307 103.108 200.308 104.278 201.488C105.438 202.658 105.428 204.557 104.258 205.717Z" fill="#30FF2C"/>
<path d="M120.788 205.717C119.618 206.877 117.728 206.878 116.558 205.698C115.398 204.528 115.398 202.637 116.578 201.467C117.748 200.307 119.638 200.308 120.808 201.488C121.968 202.658 121.958 204.557 120.788 205.717Z" fill="#30FF2C" stroke="#30FF2C" stroke-width="0.5" stroke-miterlimit="10"/>
<path d="M137.308 205.717C136.138 206.877 134.248 206.878 133.078 205.698C131.918 204.528 131.918 202.637 133.098 201.467C134.268 200.307 136.158 200.308 137.328 201.488C138.488 202.658 138.478 204.557 137.308 205.717Z" fill="#30FF2C" stroke="#30FF2C" stroke-width="0.5" stroke-miterlimit="10"/>
<path d="M153.838 205.717C152.668 206.877 150.778 206.878 149.608 205.698C148.448 204.528 148.447 202.637 149.627 201.467C150.797 200.307 152.688 200.308 153.858 201.488C155.018 202.658 155.008 204.557 153.838 205.717Z" fill="#30FF2C"/>
<path d="M104.428 189.017C103.258 190.177 101.368 190.177 100.198 188.997C99.0375 187.827 99.0375 185.938 100.218 184.767C101.388 183.608 103.278 183.607 104.448 184.787C105.608 185.967 105.598 187.858 104.428 189.017Z" fill="#30FF2C"/>
<path d="M120.958 189.017C119.788 190.177 117.898 190.177 116.728 188.997C115.568 187.827 115.567 185.938 116.747 184.767C117.917 183.608 119.808 183.607 120.978 184.787C122.138 185.967 122.128 187.858 120.958 189.017Z" fill="#30FF2C" stroke="#30FF2C" stroke-width="0.5" stroke-miterlimit="10"/>
<path d="M137.488 189.017C136.318 190.177 134.428 190.177 133.258 188.997C132.098 187.827 132.098 185.938 133.278 184.767C134.448 183.608 136.338 183.607 137.508 184.787C138.658 185.967 138.658 187.858 137.488 189.017Z" fill="#30FF2C"/>
<path d="M154.008 189.017C152.838 190.177 150.948 190.177 149.778 188.997C148.618 187.827 148.618 185.938 149.798 184.767C150.968 183.608 152.858 183.607 154.028 184.787C155.188 185.967 155.178 187.858 154.008 189.017Z" fill="#30FF2C" stroke="#30FF2C" stroke-width="0.5" stroke-miterlimit="10"/>
<path d="M168.248 205.717C167.078 206.877 165.188 206.878 164.018 205.698C162.858 204.528 162.858 202.637 164.038 201.467C165.208 200.307 167.098 200.308 168.268 201.488C169.428 202.658 169.418 204.557 168.248 205.717Z" fill="#30FF2C"/>
<path d="M110.767 217.897C109.597 219.057 107.708 219.058 106.538 217.878C105.378 216.708 105.377 214.817 106.557 213.647C107.727 212.487 109.618 212.487 110.788 213.667C111.938 214.847 111.938 216.737 110.767 217.897Z" fill="#30FF2C" stroke="#30FF2C" stroke-width="0.5" stroke-miterlimit="10"/>
<path d="M127.288 217.897C126.118 219.057 124.228 219.058 123.058 217.878C121.898 216.708 121.898 214.817 123.078 213.647C124.248 212.487 126.138 212.487 127.308 213.667C128.468 214.847 128.458 216.737 127.288 217.897Z" fill="#30FF2C"/>
<path d="M141.698 217.897C140.528 219.057 138.638 219.058 137.468 217.878C136.308 216.708 136.308 214.817 137.488 213.647C138.658 212.487 140.548 212.487 141.718 213.667C142.878 214.847 142.868 216.737 141.698 217.897Z" fill="#30FF2C"/>
<path d="M168.248 189.017C167.078 190.177 165.188 190.177 164.018 188.997C162.858 187.827 162.858 185.938 164.038 184.767C165.208 183.608 167.098 183.607 168.268 184.787C169.428 185.967 169.418 187.858 168.248 189.017Z" fill="#30FF2C"/>
<path d="M87.2475 158.337C86.0775 159.497 84.1875 159.498 83.0175 158.318C81.8575 157.148 81.8576 155.257 83.0376 154.087C84.2076 152.927 86.0975 152.927 87.2675 154.107C88.4275 155.277 88.4175 157.167 87.2475 158.337Z" fill="#30FF2C"/>
<path d="M103.778 158.337C102.608 159.497 100.718 159.498 99.5475 158.318C98.3875 157.148 98.3875 155.257 99.5675 154.087C100.737 152.927 102.628 152.927 103.798 154.107C104.958 155.277 104.948 157.167 103.778 158.337Z" fill="#30FF2C"/>
<path d="M120.298 158.337C119.128 159.497 117.238 159.498 116.068 158.318C114.908 157.148 114.908 155.257 116.088 154.087C117.258 152.927 119.148 152.927 120.318 154.107C121.478 155.277 121.478 157.167 120.298 158.337Z" fill="#30FF2C" stroke="#30FF2C" stroke-width="0.5" stroke-miterlimit="10"/>
<path d="M136.827 158.337C135.657 159.497 133.768 159.498 132.598 158.318C131.438 157.148 131.437 155.257 132.617 154.087C133.787 152.927 135.678 152.927 136.848 154.107C138.008 155.277 137.997 157.167 136.827 158.337Z" fill="#30FF2C" stroke="#30FF2C" stroke-width="0.5" stroke-miterlimit="10"/>
<path d="M153.358 158.337C152.188 159.497 150.298 159.498 149.128 158.318C147.968 157.148 147.968 155.257 149.148 154.087C150.318 152.927 152.208 152.927 153.378 154.107C154.538 155.277 154.528 157.167 153.358 158.337Z" fill="#30FF2C"/>
<path d="M96.1676 171.607C94.9976 172.767 93.1075 172.767 91.9375 171.587C90.7775 170.417 90.7775 168.527 91.9575 167.357C93.1275 166.197 95.0175 166.198 96.1875 167.378C97.3475 168.548 97.3376 170.447 96.1676 171.607Z" fill="#30FF2C"/>
<path d="M112.698 171.607C111.528 172.767 109.638 172.767 108.468 171.587C107.308 170.417 107.308 168.527 108.488 167.357C109.658 166.197 111.548 166.198 112.718 167.378C113.888 168.558 113.868 170.447 112.698 171.607Z" fill="#30FF2C"/>
<path d="M129.218 171.607C128.048 172.767 126.158 172.767 124.988 171.587C123.828 170.417 123.827 168.527 125.007 167.357C126.177 166.197 128.068 166.198 129.238 167.378C130.408 168.558 130.388 170.447 129.218 171.607Z" fill="#30FF2C" stroke="#30FF2C" stroke-width="0.5" stroke-miterlimit="10"/>
<path d="M145.748 171.607C144.578 172.767 142.688 172.767 141.518 171.587C140.358 170.417 140.358 168.527 141.538 167.357C142.708 166.197 144.598 166.198 145.768 167.378C146.928 168.548 146.918 170.447 145.748 171.607Z" fill="#30FF2C"/>
<path d="M162.278 171.607C161.108 172.767 159.218 172.767 158.048 171.587C156.888 170.417 156.887 168.527 158.067 167.357C159.237 166.197 161.128 166.198 162.298 167.378C163.448 168.548 163.448 170.447 162.278 171.607Z" fill="#30FF2C"/>
</g>
</svg>
