<svg width="263" height="244" viewBox="0 0 263 244" fill="none" xmlns="http://www.w3.org/2000/svg">
<path d="M208.284 184.11C209.934 185.75 212.614 185.74 214.254 184.09C215.894 182.44 215.884 179.77 214.234 178.12C212.584 176.48 209.904 176.49 208.264 178.14C206.624 179.8 206.634 182.47 208.284 184.11Z" fill="#30FF2C"/>
<path d="M187.924 176.65C186.774 176.65 185.624 177.09 184.754 177.97C183.014 179.72 183.024 182.55 184.774 184.29C186.524 186.03 189.364 186.02 191.094 184.27C191.934 183.42 192.394 182.3 192.394 181.1C192.394 179.91 191.924 178.79 191.074 177.94C190.204 177.08 189.064 176.65 187.924 176.65ZM185.124 183.93C183.574 182.39 183.564 179.87 185.104 178.32C186.644 176.77 189.164 176.76 190.714 178.3C191.464 179.05 191.884 180.04 191.884 181.1C191.884 182.16 191.474 183.16 190.734 183.91C189.194 185.47 186.674 185.48 185.124 183.93Z" fill="#30FF2C"/>
<path d="M161.614 184.11C163.264 185.75 165.944 185.74 167.584 184.09C169.224 182.44 169.214 179.77 167.564 178.12C165.914 176.48 163.234 176.49 161.594 178.14C159.954 179.8 159.954 182.47 161.614 184.11Z" fill="#30FF2C"/>
<path d="M141.254 176.65C141.244 176.65 141.244 176.65 141.234 176.65C140.044 176.65 138.924 177.12 138.074 177.97C136.334 179.72 136.344 182.55 138.094 184.29C139.844 186.03 142.674 186.02 144.414 184.27C146.154 182.52 146.144 179.69 144.394 177.95C143.554 177.11 142.434 176.65 141.254 176.65ZM138.454 183.93C137.704 183.18 137.284 182.19 137.284 181.13C137.284 180.07 137.694 179.07 138.434 178.32C139.184 177.57 140.174 177.15 141.234 177.15H141.244C142.304 177.15 143.294 177.56 144.044 178.3C145.594 179.84 145.604 182.36 144.064 183.91C142.524 185.46 140.004 185.47 138.454 183.93Z" fill="#30FF2C"/>
<path d="M114.944 184.11C116.594 185.75 119.274 185.74 120.914 184.09C122.554 182.44 122.544 179.77 120.894 178.12C119.244 176.48 116.564 176.49 114.924 178.14C113.274 179.8 113.284 182.47 114.944 184.11Z" fill="#30FF2C"/>
<path d="M91.6038 184.11C93.2538 185.75 95.9238 185.74 97.5738 184.09C99.2138 182.44 99.2038 179.77 97.5538 178.12C95.9038 176.48 93.2238 176.49 91.5838 178.14C89.9438 179.8 89.9538 182.47 91.6038 184.11Z" fill="#30FF2C"/>
<path d="M247.574 234.16C246.424 234.16 245.274 234.6 244.404 235.48C242.664 237.23 242.674 240.06 244.424 241.8C246.174 243.54 249.004 243.53 250.744 241.78C252.484 240.03 252.474 237.2 250.724 235.46C249.854 234.59 248.714 234.16 247.574 234.16ZM244.784 241.44C243.234 239.9 243.224 237.38 244.764 235.83C246.304 234.28 248.824 234.27 250.374 235.81C251.924 237.35 251.934 239.87 250.394 241.42C248.854 242.97 246.334 242.98 244.784 241.44Z" fill="#30FF2C"/>
<path d="M221.264 241.62C222.914 243.26 225.594 243.25 227.234 241.6C228.874 239.95 228.864 237.27 227.214 235.63C225.564 233.99 222.884 234 221.244 235.65C219.604 237.31 219.614 239.98 221.264 241.62Z" fill="#30FF2C"/>
<path d="M200.904 234.16C199.754 234.16 198.604 234.6 197.734 235.48C195.994 237.23 196.004 240.06 197.754 241.8C199.504 243.54 202.334 243.53 204.074 241.78C205.814 240.03 205.804 237.2 204.054 235.46C203.184 234.59 202.044 234.16 200.904 234.16ZM198.104 241.44C196.554 239.9 196.544 237.38 198.084 235.83C199.624 234.28 202.144 234.27 203.694 235.81C205.244 237.35 205.254 239.87 203.714 241.42C202.174 242.97 199.664 242.98 198.104 241.44Z" fill="#30FF2C"/>
<path d="M174.594 241.62C176.244 243.26 178.914 243.25 180.564 241.6C182.204 239.95 182.194 237.27 180.544 235.63C178.894 233.99 176.214 234 174.574 235.65C172.934 237.31 172.944 239.98 174.594 241.62Z" fill="#30FF2C"/>
<path d="M151.254 241.62C152.904 243.26 155.574 243.25 157.224 241.6C158.864 239.95 158.854 237.27 157.204 235.63C155.554 233.99 152.874 234 151.234 235.65C149.594 237.31 149.604 239.98 151.254 241.62Z" fill="#30FF2C"/>
<path d="M71.2438 176.65C70.0938 176.65 68.9438 177.09 68.0738 177.97C66.3338 179.72 66.3438 182.55 68.0938 184.29C69.8438 186.03 72.6738 186.02 74.4138 184.27C75.2538 183.42 75.7138 182.3 75.7138 181.1C75.7138 179.91 75.2438 178.79 74.3938 177.94C73.5138 177.08 72.3738 176.65 71.2438 176.65ZM68.4438 183.93C66.8938 182.39 66.8838 179.87 68.4238 178.32C69.9638 176.77 72.4838 176.76 74.0338 178.3C74.7838 179.05 75.2038 180.04 75.2038 181.1C75.2038 182.16 74.7938 183.16 74.0538 183.91C72.5138 185.47 69.9938 185.48 68.4438 183.93Z" fill="#30FF2C"/>
<path d="M47.9038 176.65C47.8938 176.65 47.8938 176.65 47.8838 176.65C46.6938 176.65 45.5738 177.12 44.7238 177.97C42.9838 179.72 42.9938 182.55 44.7438 184.29C46.4938 186.02 49.3238 186.02 51.0638 184.27C52.8038 182.52 52.7938 179.69 51.0438 177.95C50.2138 177.11 49.0938 176.65 47.9038 176.65ZM45.1038 183.93C43.5538 182.39 43.5438 179.87 45.0838 178.32C45.8338 177.57 46.8238 177.15 47.8838 177.15C48.9438 177.13 49.9438 177.56 50.6938 178.3C52.2438 179.84 52.2538 182.36 50.7138 183.91C49.1738 185.47 46.6638 185.48 45.1038 183.93Z" fill="#30FF2C"/>
<path d="M21.5937 184.11C23.2437 185.75 25.9238 185.74 27.5638 184.09C29.2038 182.44 29.1938 179.77 27.5438 178.12C25.8938 176.48 23.2138 176.49 21.5738 178.14C19.9338 179.8 19.9437 182.47 21.5937 184.11Z" fill="#30FF2C"/>
<path d="M184.704 160.53C186.354 162.17 189.024 162.16 190.674 160.51C192.314 158.86 192.304 156.19 190.654 154.54C189.004 152.9 186.324 152.91 184.684 154.56C183.044 156.22 183.054 158.89 184.704 160.53Z" fill="#30FF2C"/>
<path d="M164.344 153.07C164.334 153.07 164.334 153.07 164.324 153.07C163.134 153.07 162.014 153.54 161.164 154.39C160.324 155.24 159.864 156.36 159.864 157.55C159.864 158.74 160.334 159.86 161.184 160.71C162.934 162.45 165.764 162.44 167.504 160.69C169.244 158.94 169.234 156.11 167.484 154.37C166.644 153.53 165.534 153.07 164.344 153.07ZM164.344 161.51C163.334 161.51 162.324 161.13 161.544 160.36C160.794 159.61 160.374 158.62 160.374 157.56C160.374 156.5 160.784 155.5 161.524 154.75C162.274 154 163.264 153.58 164.324 153.58H164.334C165.384 153.58 166.384 153.99 167.134 154.73C168.684 156.27 168.694 158.79 167.154 160.34C166.384 161.12 165.364 161.51 164.344 161.51Z" fill="#30FF2C"/>
<path d="M138.034 160.53C139.684 162.17 142.364 162.16 144.004 160.51C145.644 158.86 145.634 156.19 143.984 154.54C142.334 152.9 139.664 152.91 138.014 154.56C136.374 156.22 136.384 158.89 138.034 160.53Z" fill="#30FF2C"/>
<path d="M117.674 153.07C116.524 153.07 115.374 153.51 114.504 154.39C112.764 156.14 112.774 158.97 114.524 160.71C115.364 161.55 116.484 162.01 117.674 162.01C117.684 162.01 117.684 162.01 117.694 162.01C118.884 162.01 120.004 161.54 120.854 160.69C121.694 159.84 122.154 158.72 122.154 157.53C122.154 156.34 121.684 155.22 120.834 154.37C119.944 153.5 118.814 153.07 117.674 153.07ZM114.874 160.36C113.324 158.82 113.314 156.3 114.854 154.75C116.394 153.2 118.914 153.19 120.464 154.73C121.214 155.48 121.634 156.47 121.634 157.53C121.634 158.59 121.224 159.59 120.484 160.34C119.734 161.09 118.744 161.51 117.684 161.51H117.674C116.614 161.51 115.624 161.1 114.874 160.36Z" fill="#30FF2C"/>
<path d="M91.3638 160.53C93.0138 162.17 95.6938 162.16 97.3338 160.51C98.9738 158.86 98.9638 156.19 97.3138 154.54C95.6638 152.9 92.9838 152.91 91.3438 154.56C89.6938 156.22 89.7038 158.89 91.3638 160.53Z" fill="#30FF2C"/>
<path d="M68.0238 160.53C69.6738 162.17 72.3538 162.16 73.9938 160.51C75.6338 158.86 75.6238 156.19 73.9738 154.54C72.3238 152.9 69.6438 152.91 68.0038 154.56C66.3638 156.22 66.3738 158.89 68.0238 160.53Z" fill="#30FF2C"/>
<path d="M47.6638 153.07C47.6538 153.07 47.6538 153.07 47.6438 153.07C46.4538 153.07 45.3338 153.54 44.4838 154.39C43.6438 155.24 43.1838 156.36 43.1838 157.55C43.1838 158.74 43.6538 159.86 44.5038 160.71C45.3438 161.55 46.4638 162.01 47.6538 162.01C47.6638 162.01 47.6638 162.01 47.6738 162.01C48.8638 162.01 49.9838 161.54 50.8338 160.69C52.5738 158.94 52.5638 156.11 50.8138 154.37C49.9638 153.53 48.8438 153.07 47.6638 153.07ZM47.6638 161.51C46.6138 161.51 45.6138 161.1 44.8638 160.36C44.1138 159.61 43.6938 158.62 43.6938 157.56C43.6938 156.5 44.1038 155.5 44.8438 154.75C45.5938 154 46.5838 153.58 47.6438 153.58H47.6538C48.7038 153.58 49.7038 153.99 50.4538 154.73C52.0038 156.27 52.0138 158.79 50.4738 160.34C49.7238 161.09 48.7338 161.51 47.6738 161.51H47.6638Z" fill="#30FF2C"/>
<path d="M24.3238 153.07C23.1738 153.07 22.0238 153.51 21.1538 154.39C19.4138 156.14 19.4238 158.97 21.1738 160.71C22.9238 162.45 25.7538 162.44 27.4938 160.69C29.2338 158.94 29.2238 156.11 27.4738 154.37C26.6038 153.5 25.4638 153.07 24.3238 153.07ZM24.3238 161.51C23.2738 161.51 22.2738 161.1 21.5238 160.36C20.7738 159.61 20.3538 158.62 20.3538 157.56C20.3538 156.5 20.7638 155.5 21.5038 154.75C23.0438 153.2 25.5638 153.19 27.1138 154.73C28.6638 156.27 28.6738 158.79 27.1338 160.34C26.3838 161.09 25.3938 161.51 24.3338 161.51C24.3338 161.51 24.3338 161.51 24.3238 161.51Z" fill="#30FF2C"/>
<path d="M1.24378 184.11C2.89378 185.75 5.57378 185.74 7.21378 184.09C8.85378 182.44 8.84378 179.77 7.19378 178.12C5.54378 176.48 2.86378 176.49 1.22378 178.14C-0.416225 179.8 -0.406224 182.47 1.24378 184.11Z" fill="#30FF2C"/>
<path d="M245.774 201.31C247.424 202.95 250.104 202.94 251.744 201.29C253.384 199.64 253.374 196.96 251.724 195.32C250.074 193.68 247.394 193.69 245.754 195.34C244.114 197 244.124 199.67 245.774 201.31Z" fill="#30FF2C"/>
<path d="M225.414 193.85C224.264 193.85 223.114 194.29 222.244 195.17C220.504 196.92 220.514 199.75 222.264 201.49C223.104 202.33 224.224 202.79 225.414 202.79C225.424 202.79 225.424 202.79 225.434 202.79C226.624 202.79 227.744 202.32 228.594 201.47C230.334 199.72 230.324 196.89 228.574 195.15C227.684 194.28 226.544 193.85 225.414 193.85ZM225.404 202.29C224.344 202.29 223.354 201.88 222.604 201.14C221.854 200.39 221.434 199.4 221.434 198.34C221.434 197.28 221.844 196.28 222.584 195.53C224.124 193.98 226.644 193.97 228.194 195.51C229.744 197.05 229.754 199.57 228.214 201.12C227.464 201.87 226.474 202.29 225.414 202.29C225.414 202.29 225.414 202.29 225.404 202.29Z" fill="#30FF2C"/>
<path d="M199.104 201.31C200.754 202.95 203.424 202.94 205.074 201.29C206.724 199.64 206.704 196.96 205.054 195.32C203.404 193.68 200.724 193.69 199.084 195.34C197.434 197 197.444 199.67 199.104 201.31Z" fill="#30FF2C"/>
<path d="M178.734 193.85C177.584 193.85 176.434 194.29 175.564 195.17C173.824 196.92 173.834 199.75 175.584 201.49C176.424 202.33 177.544 202.79 178.734 202.79C178.744 202.79 178.744 202.79 178.754 202.79C179.944 202.79 181.064 202.32 181.914 201.47C182.754 200.62 183.214 199.5 183.214 198.31C183.214 197.12 182.744 196 181.894 195.15C181.014 194.28 179.874 193.85 178.734 193.85ZM178.734 202.29C177.684 202.29 176.684 201.88 175.934 201.14C174.384 199.6 174.374 197.08 175.914 195.53C177.454 193.98 179.974 193.97 181.524 195.51C182.274 196.26 182.694 197.25 182.694 198.31C182.694 199.37 182.284 200.37 181.544 201.12C180.794 201.87 179.804 202.29 178.744 202.29C178.744 202.29 178.744 202.29 178.734 202.29Z" fill="#30FF2C"/>
<path d="M152.424 201.31C154.074 202.95 156.754 202.94 158.394 201.29C160.034 199.64 160.024 196.96 158.374 195.32C156.724 193.68 154.044 193.69 152.404 195.34C150.764 197 150.774 199.67 152.424 201.31Z" fill="#30FF2C"/>
<path d="M129.094 201.31C130.744 202.95 133.424 202.94 135.064 201.29C136.704 199.64 136.694 196.96 135.044 195.32C133.394 193.68 130.714 193.69 129.074 195.34C127.424 197 127.434 199.67 129.094 201.31Z" fill="#30FF2C"/>
<path d="M108.724 193.85C107.574 193.85 106.424 194.29 105.554 195.17C104.714 196.02 104.254 197.14 104.254 198.34C104.254 199.53 104.724 200.65 105.574 201.5C106.414 202.34 107.534 202.8 108.724 202.8C108.734 202.8 108.734 202.8 108.744 202.8C109.934 202.8 111.054 202.33 111.904 201.48C113.644 199.73 113.634 196.9 111.884 195.16C111.004 194.28 109.864 193.85 108.724 193.85ZM108.724 202.29C107.664 202.29 106.674 201.88 105.924 201.14C105.174 200.39 104.754 199.4 104.754 198.34C104.754 197.28 105.164 196.28 105.904 195.53C107.444 193.98 109.964 193.97 111.514 195.51C113.064 197.05 113.074 199.57 111.534 201.12C110.784 201.87 109.794 202.29 108.734 202.29C108.734 202.29 108.734 202.29 108.724 202.29Z" fill="#30FF2C"/>
<path d="M85.3938 193.85C84.2438 193.85 83.0938 194.29 82.2238 195.17C80.4838 196.92 80.4938 199.75 82.2438 201.49C83.0838 202.33 84.2038 202.79 85.3938 202.79C85.4038 202.79 85.4038 202.79 85.4138 202.79C86.6038 202.79 87.7238 202.32 88.5738 201.47C89.4138 200.62 89.8738 199.5 89.8738 198.31C89.8738 197.12 89.4038 196 88.5538 195.15C87.6738 194.28 86.5338 193.85 85.3938 193.85ZM85.3938 202.29C84.3438 202.29 83.3438 201.88 82.5938 201.14C81.8438 200.39 81.4238 199.4 81.4238 198.34C81.4238 197.28 81.8338 196.28 82.5738 195.53C84.1138 193.98 86.6338 193.97 88.1838 195.51C88.9338 196.26 89.3538 197.25 89.3538 198.31C89.3538 199.37 88.9438 200.37 88.2038 201.12C87.4538 201.87 86.4638 202.29 85.4038 202.29H85.3938Z" fill="#30FF2C"/>
<path d="M59.0838 201.31C60.7338 202.95 63.4138 202.94 65.0538 201.29C66.6938 199.64 66.6838 196.96 65.0338 195.32C63.3838 193.68 60.7138 193.69 59.0638 195.34C57.4138 197 57.4238 199.67 59.0838 201.31Z" fill="#30FF2C"/>
<path d="M38.7338 201.31C40.3838 202.95 43.0638 202.94 44.7038 201.29C46.3438 199.64 46.3338 196.96 44.6838 195.32C43.0338 193.68 40.3638 193.69 38.7138 195.34C37.0738 197 37.0838 199.67 38.7338 201.31Z" fill="#30FF2C"/>
<path d="M142.614 23.57C142.604 23.57 142.604 23.57 142.594 23.57C141.404 23.57 140.284 24.04 139.434 24.89C138.594 25.74 138.134 26.86 138.134 28.05C138.134 29.24 138.604 30.36 139.454 31.21C141.204 32.95 144.034 32.94 145.774 31.19C147.514 29.44 147.504 26.61 145.754 24.87C144.914 24.03 143.804 23.57 142.614 23.57ZM139.644 31.04L139.824 30.86C139.074 30.11 138.654 29.12 138.654 28.06C138.654 27 139.064 26 139.804 25.25C140.554 24.5 141.544 24.08 142.604 24.08C142.614 24.08 142.614 24.08 142.624 24.08C143.674 24.08 144.674 24.49 145.424 25.23C146.974 26.77 146.984 29.29 145.444 30.84C143.904 32.39 141.384 32.4 139.834 30.86L139.644 31.04Z" fill="#30FF2C"/>
<path d="M116.304 31.04C117.954 32.68 120.634 32.67 122.274 31.02C123.914 29.37 123.904 26.7 122.254 25.05C120.604 23.41 117.924 23.42 116.284 25.07C114.644 26.72 114.654 29.4 116.304 31.04Z" fill="#30FF2C"/>
<path d="M92.9637 31.04C94.6137 32.68 97.2937 32.67 98.9337 31.02C100.574 29.37 100.564 26.7 98.9137 25.05C97.2637 23.41 94.5837 23.42 92.9437 25.07C91.3037 26.72 91.3137 29.4 92.9637 31.04Z" fill="#30FF2C"/>
<path d="M72.6038 23.57C72.5938 23.57 72.5938 23.57 72.5838 23.57C71.3938 23.57 70.2738 24.04 69.4238 24.89C67.6838 26.64 67.6938 29.47 69.4438 31.21C71.1938 32.95 74.0238 32.94 75.7638 31.19C76.6038 30.34 77.0638 29.22 77.0638 28.02C77.0638 26.83 76.5938 25.71 75.7438 24.86C74.9038 24.03 73.7938 23.57 72.6038 23.57ZM69.8038 30.86C68.2538 29.32 68.2438 26.8 69.7838 25.25C70.5338 24.5 71.5238 24.08 72.5838 24.08C73.6438 24.06 74.6438 24.49 75.3938 25.23C76.1438 25.98 76.5638 26.97 76.5638 28.03C76.5638 29.09 76.1538 30.09 75.4138 30.84C73.8738 32.39 71.3538 32.4 69.8038 30.86Z" fill="#30FF2C"/>
<path d="M49.2637 23.57C49.2537 23.57 49.2537 23.57 49.2437 23.57C48.0537 23.57 46.9337 24.04 46.0837 24.89C44.3437 26.64 44.3537 29.47 46.1037 31.21C47.8537 32.95 50.6837 32.94 52.4237 31.19C54.1637 29.44 54.1538 26.61 52.4038 24.87C51.5738 24.03 50.4537 23.57 49.2637 23.57ZM46.4738 30.86C44.9238 29.32 44.9137 26.8 46.4537 25.25C47.2037 24.5 48.1938 24.08 49.2538 24.08C49.2638 24.08 49.2637 24.08 49.2737 24.08C50.3237 24.08 51.3238 24.49 52.0738 25.23C53.6238 26.77 53.6337 29.29 52.0937 30.84C50.5437 32.39 48.0238 32.4 46.4738 30.86Z" fill="#30FF2C"/>
<path d="M139.394 7.46007C141.044 9.10007 143.724 9.09005 145.364 7.44005C147.004 5.79005 146.994 3.11002 145.344 1.47002C143.694 -0.169979 141.024 -0.15996 139.374 1.49004C137.734 3.15004 137.744 5.82007 139.394 7.46007Z" fill="#30FF2C"/>
<path d="M119.034 -6.10352e-05C117.884 -6.10352e-05 116.734 0.439946 115.864 1.31995C114.124 3.06995 114.134 5.89995 115.884 7.63995C116.724 8.47995 117.844 8.93994 119.034 8.93994C119.044 8.93994 119.044 8.93994 119.054 8.93994C120.244 8.93994 121.364 8.46993 122.214 7.61993C123.054 6.76993 123.514 5.64996 123.514 4.45996C123.514 3.26996 123.044 2.14993 122.194 1.29993C121.314 0.429927 120.174 -6.10352e-05 119.034 -6.10352e-05ZM119.034 8.42993C117.984 8.42993 116.984 8.01991 116.234 7.27991C114.684 5.73991 114.674 3.21992 116.214 1.66992C117.754 0.119922 120.274 0.109963 121.824 1.64996C122.574 2.39996 122.994 3.38995 122.994 4.44995C122.994 5.50995 122.584 6.50995 121.844 7.25995C121.094 8.00995 120.104 8.42993 119.044 8.42993H119.034Z" fill="#30FF2C"/>
<path d="M92.7238 7.46007C94.3738 9.10007 97.0538 9.09005 98.6938 7.44005C100.334 5.79005 100.324 3.11002 98.6737 1.47002C97.0237 -0.169979 94.3438 -0.15996 92.7038 1.49004C91.0638 3.15004 91.0738 5.82007 92.7238 7.46007Z" fill="#30FF2C"/>
<path d="M69.3838 7.46007C71.0338 9.10007 73.7138 9.09005 75.3538 7.44005C76.9938 5.79005 76.9838 3.11002 75.3338 1.47002C73.6838 -0.169979 71.0038 -0.15996 69.3638 1.49004C67.7238 3.15004 67.7338 5.82007 69.3838 7.46007Z" fill="#30FF2C"/>
<path d="M49.0238 -6.10352e-05C47.8738 -6.10352e-05 46.7238 0.439946 45.8538 1.31995C45.0138 2.16995 44.5538 3.28993 44.5538 4.48993C44.5538 5.67993 45.0238 6.79996 45.8738 7.64996C46.7138 8.48996 47.8338 8.94995 49.0238 8.94995C49.0338 8.94995 49.0338 8.94995 49.0438 8.94995C50.2338 8.94995 51.3538 8.47994 52.2038 7.62994C53.9438 5.87994 53.9338 3.04994 52.1838 1.30994C51.3038 0.429936 50.1638 -6.10352e-05 49.0238 -6.10352e-05ZM49.0238 8.42993C47.9738 8.42993 46.9738 8.01991 46.2238 7.27991C45.4738 6.52991 45.0538 5.53992 45.0538 4.47992C45.0538 3.41992 45.4638 2.41992 46.2038 1.66992C47.7438 0.119922 50.2638 0.109963 51.8138 1.64996C53.3638 3.18996 53.3738 5.70995 51.8338 7.25995C51.0838 8.00995 50.0938 8.42993 49.0338 8.42993H49.0238Z" fill="#30FF2C"/>
<path d="M130.454 48.24C132.104 49.88 134.774 49.87 136.424 48.22C138.074 46.57 138.054 43.89 136.404 42.25C134.754 40.61 132.074 40.62 130.434 42.27C128.794 43.92 128.804 46.6 130.454 48.24Z" fill="#30FF2C"/>
<path d="M110.094 40.78C108.944 40.78 107.794 41.22 106.924 42.1C106.084 42.95 105.624 44.07 105.624 45.26C105.624 46.45 106.094 47.57 106.944 48.42C107.784 49.26 108.904 49.72 110.094 49.72C110.104 49.72 110.104 49.72 110.114 49.72C111.304 49.72 112.424 49.25 113.274 48.4C115.014 46.65 115.004 43.82 113.254 42.08C112.364 41.21 111.234 40.78 110.094 40.78ZM110.094 49.21C109.044 49.21 108.044 48.8 107.294 48.06C106.544 47.31 106.124 46.32 106.124 45.26C106.124 44.2 106.534 43.2 107.274 42.45C108.814 40.9 111.334 40.89 112.884 42.43C114.434 43.97 114.444 46.49 112.904 48.04C112.154 48.79 111.164 49.21 110.104 49.21H110.094Z" fill="#30FF2C"/>
<path d="M86.7537 40.78C85.6037 40.78 84.4537 41.22 83.5837 42.1C81.8437 43.85 81.8537 46.68 83.6037 48.42C84.4437 49.26 85.5637 49.72 86.7537 49.72C86.7637 49.72 86.7637 49.72 86.7737 49.72C87.9637 49.72 89.0838 49.25 89.9338 48.4C91.6738 46.65 91.6637 43.82 89.9137 42.08C89.0337 41.21 87.8937 40.78 86.7537 40.78ZM86.7537 49.21C85.6937 49.21 84.7037 48.8 83.9537 48.06C82.4037 46.52 82.3938 44 83.9338 42.45C85.4738 40.9 87.9938 40.89 89.5438 42.43C90.2938 43.18 90.7137 44.17 90.7137 45.2299C90.7137 46.2899 90.3038 47.29 89.5638 48.04C88.8138 48.79 87.8238 49.21 86.7638 49.21H86.7537Z" fill="#30FF2C"/>
<path d="M60.4438 48.24C62.0938 49.88 64.7738 49.87 66.4138 48.22C68.0538 46.57 68.0438 43.89 66.3938 42.25C64.7438 40.61 62.0738 40.62 60.4238 42.27C58.7838 43.92 58.7938 46.6 60.4438 48.24Z" fill="#30FF2C"/>
<path d="M40.0937 48.24C41.7437 49.88 44.4238 49.87 46.0638 48.22C47.7038 46.57 47.6938 43.89 46.0438 42.25C44.3938 40.61 41.7238 40.62 40.0738 42.27C38.4338 43.92 38.4437 46.6 40.0937 48.24Z" fill="#30FF2C"/>
<path d="M245.774 90.3399C247.424 91.9799 250.104 91.97 251.744 90.32C253.384 88.67 253.374 85.9899 251.724 84.3499C250.074 82.7099 247.394 82.7199 245.754 84.3699C244.114 86.0199 244.124 88.6899 245.774 90.3399Z" fill="#30FF2C"/>
<path d="M225.414 82.8701C225.404 82.8701 225.404 82.8701 225.394 82.8701C224.204 82.8701 223.084 83.3401 222.234 84.1901C220.494 85.9401 220.504 88.7701 222.254 90.5101C224.004 92.2501 226.834 92.2401 228.574 90.4901C230.314 88.7401 230.304 85.91 228.554 84.17C227.714 83.33 226.594 82.8701 225.414 82.8701ZM222.434 90.3401L222.614 90.1601C221.064 88.6201 221.054 86.1001 222.594 84.5501C223.344 83.8001 224.334 83.3801 225.394 83.3801C225.404 83.3801 225.404 83.3801 225.414 83.3801C226.464 83.3801 227.464 83.7901 228.214 84.5301C228.964 85.2801 229.384 86.2701 229.384 87.33C229.384 88.39 228.974 89.39 228.234 90.14C226.694 91.69 224.174 91.7001 222.624 90.1601L222.434 90.3401Z" fill="#30FF2C"/>
<path d="M199.104 90.3399C200.754 91.9799 203.424 91.97 205.074 90.32C206.714 88.67 206.704 85.9899 205.054 84.3499C203.404 82.7099 200.724 82.7199 199.084 84.3699C197.434 86.0199 197.444 88.6899 199.104 90.3399Z" fill="#30FF2C"/>
<path d="M178.734 82.8701C178.724 82.8701 178.724 82.8701 178.714 82.8701C177.524 82.8701 176.404 83.3401 175.554 84.1901C173.814 85.9401 173.824 88.7701 175.574 90.5101C176.414 91.3501 177.534 91.8101 178.724 91.8101C178.734 91.8101 178.734 91.8101 178.744 91.8101C179.934 91.8101 181.054 91.3401 181.904 90.4901C182.744 89.6401 183.204 88.5201 183.204 87.3201C183.204 86.1301 182.734 85.0101 181.884 84.1601C181.044 83.3301 179.924 82.8701 178.734 82.8701ZM175.944 90.1601C174.394 88.6201 174.384 86.1 175.924 84.55C176.674 83.8 177.664 83.3801 178.724 83.3801H178.734C179.794 83.3801 180.784 83.7901 181.534 84.5301C182.284 85.2801 182.704 86.27 182.704 87.33C182.704 88.39 182.294 89.39 181.554 90.14C180.804 90.89 179.814 91.3101 178.754 91.3101H178.744C177.684 91.3101 176.684 90.9001 175.944 90.1601Z" fill="#30FF2C"/>
<path d="M152.424 90.3399C154.074 91.9799 156.754 91.97 158.394 90.32C160.034 88.67 160.024 85.9899 158.374 84.3499C156.724 82.7099 154.044 82.7199 152.404 84.3699C150.764 86.0199 150.774 88.6899 152.424 90.3399Z" fill="#30FF2C"/>
<path d="M129.094 90.3399C130.744 91.9799 133.424 91.97 135.064 90.32C136.704 88.67 136.694 85.9899 135.044 84.3499C133.394 82.7099 130.714 82.7199 129.074 84.3699C127.424 86.0199 127.434 88.6899 129.094 90.3399Z" fill="#30FF2C"/>
<path d="M140.764 69.75C142.414 71.39 145.094 71.38 146.734 69.73C148.374 68.08 148.364 65.4 146.714 63.76C145.064 62.12 142.384 62.13 140.744 63.78C139.094 65.43 139.104 68.11 140.764 69.75Z" fill="#30FF2C"/>
<path d="M120.394 62.29C119.244 62.29 118.094 62.73 117.224 63.61C115.484 65.36 115.494 68.19 117.244 69.93C118.084 70.77 119.204 71.23 120.394 71.23C120.404 71.23 120.404 71.23 120.414 71.23C121.604 71.23 122.724 70.76 123.574 69.91C124.414 69.06 124.874 67.94 124.874 66.74C124.874 65.55 124.404 64.43 123.554 63.58C122.674 62.72 121.534 62.29 120.394 62.29ZM120.394 70.72C119.344 70.72 118.344 70.31 117.594 69.57C116.044 68.03 116.034 65.51 117.574 63.96C119.114 62.41 121.634 62.4 123.184 63.94C123.934 64.69 124.354 65.68 124.354 66.74C124.354 67.8 123.944 68.8 123.204 69.55C122.454 70.3 121.464 70.72 120.404 70.72C120.404 70.72 120.404 70.72 120.394 70.72Z" fill="#30FF2C"/>
<path d="M94.0837 69.75C95.7337 71.39 98.4137 71.38 100.054 69.73C101.694 68.08 101.684 65.4 100.034 63.76C98.3837 62.12 95.7037 62.13 94.0637 63.78C92.4237 65.43 92.4337 68.11 94.0837 69.75Z" fill="#30FF2C"/>
<path d="M70.7538 69.75C72.4038 71.39 75.0838 71.38 76.7238 69.73C78.3638 68.08 78.3538 65.4 76.7038 63.76C75.0538 62.12 72.3738 62.13 70.7338 63.78C69.0838 65.43 69.0938 68.11 70.7538 69.75Z" fill="#30FF2C"/>
<path d="M108.724 82.8701C108.714 82.8701 108.714 82.8701 108.704 82.8701C107.514 82.8701 106.394 83.3401 105.544 84.1901C104.704 85.0401 104.244 86.1601 104.244 87.3501C104.244 88.5401 104.714 89.6601 105.564 90.5101C107.314 92.2501 110.144 92.2401 111.884 90.4901C113.624 88.7401 113.614 85.91 111.864 84.17C111.034 83.33 109.914 82.8701 108.724 82.8701ZM105.754 90.3401L105.934 90.1601C105.184 89.4101 104.764 88.42 104.764 87.36C104.764 86.3 105.174 85.3001 105.914 84.5501C106.664 83.8001 107.654 83.3801 108.714 83.3801C108.724 83.3801 108.724 83.3801 108.734 83.3801C109.784 83.3801 110.784 83.7901 111.534 84.5301C113.084 86.0701 113.094 88.59 111.554 90.14C110.014 91.69 107.494 91.7001 105.944 90.1601L105.754 90.3401Z" fill="#30FF2C"/>
<path d="M85.3938 82.8701C85.3838 82.8701 85.3837 82.8701 85.3737 82.8701C84.1837 82.8701 83.0638 83.3401 82.2138 84.1901C80.4738 85.9401 80.4838 88.7701 82.2338 90.5101C83.9838 92.2501 86.8138 92.2401 88.5538 90.4901C89.3938 89.6401 89.8538 88.5201 89.8538 87.3201C89.8538 86.1301 89.3837 85.0101 88.5337 84.1601C87.6937 83.3301 86.5838 82.8701 85.3938 82.8701ZM82.5938 90.1601C81.0438 88.6201 81.0338 86.1001 82.5738 84.5501C83.3238 83.8001 84.3137 83.3801 85.3737 83.3801H85.3838C86.4438 83.3801 87.4338 83.7901 88.1838 84.5301C88.9338 85.2801 89.3538 86.2701 89.3538 87.33C89.3538 88.39 88.9438 89.39 88.2038 90.14C87.4538 90.89 86.4638 91.3101 85.4038 91.3101H85.3938C84.3338 91.3101 83.3438 90.9001 82.5938 90.1601Z" fill="#30FF2C"/>
<path d="M59.0838 90.3399C60.7338 91.9799 63.4138 91.97 65.0538 90.32C66.6938 88.67 66.6838 85.9899 65.0338 84.3499C63.3838 82.7099 60.7138 82.7199 59.0638 84.3699C57.4138 86.0199 57.4238 88.6899 59.0838 90.3399Z" fill="#30FF2C"/>
<path d="M38.7338 90.3399C40.3838 91.9799 43.0638 91.97 44.7038 90.32C46.3438 88.67 46.3338 85.9899 44.6838 84.3499C43.0338 82.7099 40.3638 82.7199 38.7138 84.3699C37.0738 86.0199 37.0838 88.6899 38.7338 90.3399Z" fill="#30FF2C"/>
<path d="M1.24378 160.53C2.89378 162.17 5.57378 162.16 7.21378 160.51C8.85378 158.86 8.84378 156.19 7.19378 154.54C5.54378 152.9 2.86378 152.91 1.22378 154.56C-0.416225 156.22 -0.406224 158.89 1.24378 160.53Z" fill="#30FF2C"/>
<path d="M196.684 128.49C195.534 128.49 194.384 128.93 193.514 129.81C192.674 130.66 192.214 131.78 192.214 132.98C192.214 134.17 192.684 135.29 193.534 136.14C194.374 136.98 195.494 137.44 196.684 137.44C196.694 137.44 196.694 137.44 196.704 137.44C197.894 137.44 199.014 136.97 199.864 136.12C201.604 134.37 201.594 131.54 199.844 129.8C198.964 128.92 197.824 128.49 196.684 128.49ZM196.684 136.92C195.624 136.92 194.634 136.51 193.884 135.77C193.134 135.02 192.714 134.03 192.714 132.97C192.714 131.91 193.124 130.91 193.864 130.16C195.404 128.61 197.924 128.6 199.474 130.14C201.024 131.68 201.034 134.2 199.494 135.75C198.744 136.5 197.754 136.92 196.694 136.92C196.694 136.92 196.694 136.92 196.684 136.92Z" fill="#30FF2C"/>
<path d="M173.344 128.49C172.194 128.49 171.044 128.93 170.174 129.81C169.334 130.66 168.874 131.78 168.874 132.98C168.874 134.17 169.344 135.29 170.194 136.14C171.944 137.88 174.774 137.87 176.514 136.12C178.254 134.37 178.244 131.54 176.494 129.8C175.624 128.92 174.484 128.49 173.344 128.49ZM173.344 136.92C172.334 136.92 171.324 136.54 170.544 135.77C169.794 135.02 169.374 134.03 169.374 132.97C169.374 131.91 169.784 130.91 170.524 130.16C172.064 128.61 174.584 128.6 176.134 130.14C177.684 131.68 177.694 134.2 176.154 135.75C175.394 136.53 174.374 136.92 173.344 136.92Z" fill="#30FF2C"/>
<path d="M150.274 135.95C151.924 137.59 154.594 137.58 156.244 135.93C157.894 134.28 157.874 131.6 156.224 129.96C154.574 128.32 151.894 128.33 150.254 129.98C148.614 131.63 148.614 134.3 150.274 135.95Z" fill="#30FF2C"/>
<path d="M98.8138 110.48C100.464 112.12 103.144 112.11 104.784 110.46C106.424 108.81 106.414 106.14 104.764 104.49C103.114 102.85 100.444 102.86 98.7938 104.51C97.1438 106.17 97.1538 108.84 98.8138 110.48Z" fill="#30FF2C"/>
<path d="M75.4738 110.48C77.1238 112.12 79.8038 112.11 81.4438 110.46C83.0838 108.81 83.0738 106.14 81.4238 104.49C79.7738 102.85 77.1038 102.86 75.4538 104.51C73.8138 106.17 73.8238 108.84 75.4738 110.48Z" fill="#30FF2C"/>
<path d="M55.1138 103.02C53.9638 103.02 52.8138 103.46 51.9438 104.34C50.2038 106.09 50.2138 108.92 51.9638 110.66C53.7138 112.4 56.5438 112.39 58.2838 110.64C59.1238 109.79 59.5838 108.67 59.5838 107.47C59.5838 106.28 59.1138 105.16 58.2638 104.31C57.3838 103.45 56.2538 103.02 55.1138 103.02ZM52.3138 110.31C50.7638 108.77 50.7538 106.25 52.2938 104.7C53.8338 103.15 56.3538 103.14 57.9038 104.68C58.6538 105.43 59.0738 106.42 59.0738 107.48C59.0738 108.54 58.6638 109.54 57.9238 110.29C56.3838 111.84 53.8638 111.85 52.3138 110.31Z" fill="#30FF2C"/>
<path d="M31.7738 103.02C30.6238 103.02 29.4738 103.46 28.6038 104.34C26.8638 106.09 26.8738 108.92 28.6238 110.66C30.3738 112.4 33.2038 112.39 34.9438 110.64C36.6838 108.89 36.6738 106.06 34.9238 104.32C34.0538 103.45 32.9138 103.02 31.7738 103.02ZM28.9838 110.3C27.4338 108.76 27.4238 106.24 28.9638 104.69C30.5038 103.14 33.0238 103.13 34.5738 104.67C36.1238 106.21 36.1338 108.73 34.5938 110.28C33.0538 111.83 30.5338 111.84 28.9838 110.3Z" fill="#30FF2C"/>
<path d="M5.46375 110.48C7.11375 112.12 9.79374 112.11 11.4337 110.46C13.0737 108.81 13.0637 106.14 11.4137 104.49C9.76374 102.85 7.08375 102.86 5.44375 104.51C3.80375 106.17 3.81375 108.84 5.46375 110.48Z" fill="#30FF2C"/>
<path d="M254.954 222.4C256.604 224.04 259.284 224.03 260.924 222.38C262.564 220.73 262.554 218.05 260.904 216.41C259.254 214.77 256.574 214.78 254.934 216.43C253.294 218.09 253.304 220.76 254.954 222.4Z" fill="#30FF2C"/>
<path d="M231.624 222.4C233.274 224.04 235.954 224.03 237.594 222.38C239.234 220.73 239.224 218.05 237.574 216.41C235.924 214.77 233.244 214.78 231.604 216.43C229.954 218.09 229.964 220.76 231.624 222.4Z" fill="#30FF2C"/>
<path d="M211.254 214.94C211.244 214.94 211.244 214.94 211.234 214.94C210.044 214.94 208.924 215.41 208.074 216.26C207.234 217.11 206.774 218.23 206.774 219.43C206.774 220.62 207.244 221.74 208.094 222.59C208.934 223.43 210.054 223.89 211.244 223.89C211.254 223.89 211.254 223.89 211.264 223.89C212.454 223.89 213.574 223.42 214.424 222.57C216.164 220.82 216.154 217.99 214.404 216.25C213.564 215.4 212.444 214.94 211.254 214.94ZM211.254 223.38C210.204 223.38 209.204 222.97 208.454 222.23C207.704 221.48 207.284 220.49 207.284 219.43C207.284 218.37 207.694 217.37 208.434 216.62C209.184 215.87 210.174 215.45 211.234 215.45H211.244C212.294 215.45 213.294 215.86 214.044 216.6C215.594 218.14 215.604 220.66 214.064 222.21C213.314 222.96 212.324 223.38 211.264 223.38C211.264 223.38 211.264 223.38 211.254 223.38Z" fill="#30FF2C"/>
<path d="M187.924 214.94C186.774 214.94 185.624 215.38 184.754 216.26C183.014 218.01 183.024 220.84 184.774 222.58C185.614 223.42 186.734 223.88 187.924 223.88C187.934 223.88 187.934 223.88 187.944 223.88C189.134 223.88 190.254 223.41 191.104 222.56C191.944 221.71 192.404 220.59 192.404 219.4C192.404 218.21 191.934 217.09 191.084 216.24C190.204 215.37 189.064 214.94 187.924 214.94ZM187.924 223.38C186.874 223.38 185.874 222.97 185.124 222.23C183.574 220.69 183.564 218.17 185.104 216.62C186.644 215.07 189.164 215.06 190.714 216.6C191.464 217.35 191.884 218.34 191.884 219.4C191.884 220.46 191.474 221.46 190.734 222.21C189.984 222.96 188.994 223.38 187.934 223.38H187.924Z" fill="#30FF2C"/>
<path d="M161.614 222.4C163.264 224.04 165.944 224.03 167.584 222.38C169.224 220.73 169.214 218.05 167.564 216.41C165.914 214.77 163.234 214.78 161.594 216.43C159.954 218.09 159.954 220.76 161.614 222.4Z" fill="#30FF2C"/>
<path d="M129.334 128.49C128.184 128.49 127.034 128.93 126.164 129.81C125.324 130.66 124.864 131.78 124.864 132.98C124.864 134.17 125.334 135.29 126.184 136.14C127.934 137.88 130.764 137.87 132.504 136.12C134.244 134.37 134.234 131.54 132.484 129.8C131.614 128.92 130.474 128.49 129.334 128.49ZM129.334 136.92C128.324 136.92 127.314 136.54 126.534 135.77C125.784 135.02 125.364 134.03 125.364 132.97C125.364 131.91 125.774 130.91 126.514 130.16C128.054 128.61 130.574 128.6 132.124 130.14C133.674 131.68 133.684 134.2 132.144 135.75C131.384 136.53 130.364 136.92 129.334 136.92Z" fill="#30FF2C"/>
<path d="M103.034 135.95C104.684 137.59 107.354 137.58 109.004 135.93C110.654 134.28 110.634 131.6 108.984 129.96C107.334 128.32 104.654 128.33 103.014 129.98C101.374 131.63 101.374 134.3 103.034 135.95Z" fill="#30FF2C"/>
<path d="M79.6938 135.95C81.3438 137.59 84.0238 137.58 85.6638 135.93C87.3038 134.28 87.2938 131.6 85.6438 129.96C83.9938 128.32 81.3238 128.33 79.6738 129.98C78.0238 131.63 78.0438 134.3 79.6938 135.95Z" fill="#30FF2C"/>
<path d="M59.3338 128.49C58.1838 128.49 57.0338 128.93 56.1638 129.81C54.4238 131.56 54.4338 134.39 56.1838 136.13C57.0238 136.97 58.1438 137.43 59.3338 137.43C59.3438 137.43 59.3438 137.43 59.3538 137.43C60.5438 137.43 61.6638 136.96 62.5138 136.11C63.3538 135.26 63.8138 134.14 63.8138 132.94C63.8138 131.75 63.3438 130.63 62.4938 129.78C61.6038 128.92 60.4638 128.49 59.3338 128.49ZM59.3338 136.92C58.2738 136.92 57.2838 136.51 56.5338 135.77C54.9838 134.23 54.9738 131.71 56.5138 130.16C58.0538 128.61 60.5738 128.6 62.1238 130.14C62.8738 130.89 63.2938 131.88 63.2938 132.94C63.2938 134 62.8838 135 62.1438 135.75C61.3938 136.5 60.4038 136.92 59.3438 136.92C59.3338 136.92 59.3338 136.92 59.3338 136.92Z" fill="#30FF2C"/>
<path d="M35.9938 128.49C34.8438 128.49 33.6938 128.93 32.8238 129.81C31.9838 130.66 31.5238 131.78 31.5238 132.98C31.5238 134.17 31.9938 135.29 32.8438 136.14C33.6838 136.98 34.8038 137.44 35.9938 137.44C36.0038 137.44 36.0038 137.44 36.0138 137.44C37.2038 137.44 38.3238 136.97 39.1738 136.12C40.9138 134.37 40.9038 131.54 39.1538 129.8C38.2738 128.92 37.1338 128.49 35.9938 128.49ZM35.9938 136.92C34.9338 136.92 33.9438 136.51 33.1938 135.77C32.4438 135.02 32.0238 134.03 32.0238 132.97C32.0238 131.91 32.4338 130.91 33.1738 130.16C34.7138 128.61 37.2338 128.6 38.7838 130.14C40.3338 131.68 40.3438 134.2 38.8038 135.75C38.0538 136.5 37.0638 136.92 36.0038 136.92H35.9938Z" fill="#30FF2C"/>
<path d="M9.68378 135.95C11.3338 137.59 14.0138 137.58 15.6538 135.93C17.2938 134.28 17.2838 131.6 15.6338 129.96C13.9838 128.32 11.3038 128.33 9.66378 129.98C8.02378 131.63 8.03378 134.3 9.68378 135.95Z" fill="#30FF2C"/>
</svg>
