<svg width="263" height="244" viewBox="0 0 263 244" fill="none" xmlns="http://www.w3.org/2000/svg">
<path d="M208.284 58.9888C209.934 57.3488 212.614 57.3588 214.254 59.0088C215.894 60.6588 215.884 63.3288 214.234 64.9788C212.584 66.6188 209.904 66.6088 208.264 64.9588C206.624 63.2988 206.634 60.6288 208.284 58.9888Z" fill="#30FF2C"/>
<path d="M187.924 66.4488C186.774 66.4488 185.624 66.0088 184.754 65.1288C183.014 63.3788 183.024 60.5488 184.774 58.8088C186.524 57.0688 189.364 57.0788 191.094 58.8288C191.934 59.6788 192.394 60.7988 192.394 61.9988C192.394 63.1888 191.924 64.3088 191.074 65.1588C190.204 66.0188 189.064 66.4488 187.924 66.4488ZM185.124 59.1688C183.574 60.7088 183.564 63.2288 185.104 64.7788C186.644 66.3288 189.164 66.3388 190.714 64.7988C191.464 64.0488 191.884 63.0588 191.884 61.9988C191.884 60.9388 191.474 59.9388 190.734 59.1888C189.194 57.6288 186.674 57.6188 185.124 59.1688Z" fill="#30FF2C"/>
<path d="M161.614 58.9888C163.264 57.3488 165.944 57.3588 167.584 59.0088C169.224 60.6588 169.214 63.3288 167.564 64.9788C165.914 66.6188 163.234 66.6088 161.594 64.9588C159.954 63.2988 159.954 60.6288 161.614 58.9888Z" fill="#30FF2C"/>
<path d="M141.254 66.4488C141.244 66.4488 141.244 66.4488 141.234 66.4488C140.044 66.4488 138.924 65.9788 138.074 65.1288C136.334 63.3788 136.344 60.5488 138.094 58.8088C139.844 57.0688 142.674 57.0788 144.414 58.8288C146.154 60.5788 146.144 63.4088 144.394 65.1488C143.554 65.9888 142.434 66.4488 141.254 66.4488ZM138.454 59.1688C137.704 59.9188 137.284 60.9088 137.284 61.9688C137.284 63.0288 137.694 64.0288 138.434 64.7788C139.184 65.5288 140.174 65.9488 141.234 65.9488H141.244C142.304 65.9488 143.294 65.5388 144.044 64.7988C145.594 63.2588 145.604 60.7388 144.064 59.1888C142.524 57.6388 140.004 57.6288 138.454 59.1688Z" fill="#30FF2C"/>
<path d="M114.944 58.9888C116.594 57.3488 119.274 57.3588 120.914 59.0088C122.554 60.6588 122.544 63.3288 120.894 64.9788C119.244 66.6188 116.564 66.6088 114.924 64.9588C113.274 63.2988 113.284 60.6288 114.944 58.9888Z" fill="#30FF2C"/>
<path d="M91.6038 58.9888C93.2538 57.3488 95.9238 57.3588 97.5738 59.0088C99.2138 60.6588 99.2038 63.3288 97.5538 64.9788C95.9038 66.6188 93.2238 66.6088 91.5838 64.9588C89.9438 63.2988 89.9538 60.6288 91.6038 58.9888Z" fill="#30FF2C"/>
<path d="M247.574 8.93876C246.424 8.93876 245.274 8.49879 244.404 7.61879C242.664 5.86879 242.674 3.03878 244.424 1.29878C246.174 -0.44122 249.004 -0.431231 250.744 1.31877C252.484 3.06877 252.474 5.89878 250.724 7.63878C249.854 8.50878 248.714 8.93876 247.574 8.93876ZM244.784 1.65876C243.234 3.19876 243.224 5.71878 244.764 7.26878C246.304 8.81878 248.824 8.82877 250.374 7.28877C251.924 5.74877 251.934 3.22878 250.394 1.67878C248.854 0.128785 246.334 0.118765 244.784 1.65876Z" fill="#30FF2C"/>
<path d="M221.264 1.47879C222.914 -0.161214 225.594 -0.151225 227.234 1.49878C228.874 3.14878 228.864 5.82878 227.214 7.46878C225.564 9.10878 222.884 9.09879 221.244 7.44879C219.604 5.78879 219.614 3.11879 221.264 1.47879Z" fill="#30FF2C"/>
<path d="M200.904 8.93876C199.754 8.93876 198.604 8.49879 197.734 7.61879C195.994 5.86879 196.004 3.03878 197.754 1.29878C199.504 -0.44122 202.334 -0.431231 204.074 1.31877C205.814 3.06877 205.804 5.89878 204.054 7.63878C203.184 8.50878 202.044 8.93876 200.904 8.93876ZM198.104 1.65876C196.554 3.19876 196.544 5.71878 198.084 7.26878C199.624 8.81878 202.144 8.82877 203.694 7.28877C205.244 5.74877 205.254 3.22878 203.714 1.67878C202.174 0.128785 199.664 0.118765 198.104 1.65876Z" fill="#30FF2C"/>
<path d="M174.594 1.47879C176.244 -0.161214 178.914 -0.151225 180.564 1.49878C182.204 3.14878 182.194 5.82878 180.544 7.46878C178.894 9.10878 176.214 9.09879 174.574 7.44879C172.934 5.78879 172.944 3.11879 174.594 1.47879Z" fill="#30FF2C"/>
<path d="M151.254 1.47879C152.904 -0.161214 155.574 -0.151225 157.224 1.49878C158.864 3.14878 158.854 5.82878 157.204 7.46878C155.554 9.10878 152.874 9.09879 151.234 7.44879C149.594 5.78879 149.604 3.11879 151.254 1.47879Z" fill="#30FF2C"/>
<path d="M71.2438 66.4488C70.0938 66.4488 68.9438 66.0088 68.0738 65.1288C66.3338 63.3788 66.3438 60.5488 68.0938 58.8088C69.8438 57.0688 72.6738 57.0788 74.4138 58.8288C75.2538 59.6788 75.7138 60.7988 75.7138 61.9988C75.7138 63.1888 75.2438 64.3088 74.3938 65.1588C73.5138 66.0188 72.3738 66.4488 71.2438 66.4488ZM68.4438 59.1688C66.8938 60.7088 66.8838 63.2288 68.4238 64.7788C69.9638 66.3288 72.4838 66.3388 74.0338 64.7988C74.7838 64.0488 75.2038 63.0588 75.2038 61.9988C75.2038 60.9388 74.7938 59.9388 74.0538 59.1888C72.5138 57.6288 69.9938 57.6188 68.4438 59.1688Z" fill="#30FF2C"/>
<path d="M47.9038 66.4487C47.8938 66.4487 47.8938 66.4487 47.8838 66.4487C46.6938 66.4487 45.5738 65.9787 44.7238 65.1287C42.9838 63.3787 42.9938 60.5487 44.7438 58.8087C46.4938 57.0787 49.3238 57.0787 51.0638 58.8287C52.8038 60.5787 52.7938 63.4087 51.0438 65.1487C50.2138 65.9887 49.0938 66.4487 47.9038 66.4487ZM45.1038 59.1687C43.5538 60.7087 43.5438 63.2287 45.0838 64.7787C45.8338 65.5287 46.8238 65.9487 47.8838 65.9487C48.9438 65.9687 49.9438 65.5387 50.6938 64.7987C52.2438 63.2587 52.2538 60.7387 50.7138 59.1887C49.1738 57.6287 46.6638 57.6187 45.1038 59.1687Z" fill="#30FF2C"/>
<path d="M21.5938 58.9888C23.2438 57.3488 25.9238 57.3588 27.5638 59.0088C29.2038 60.6588 29.1938 63.3288 27.5438 64.9788C25.8938 66.6188 23.2138 66.6088 21.5738 64.9588C19.9338 63.2988 19.9438 60.6288 21.5938 58.9888Z" fill="#30FF2C"/>
<path d="M184.704 82.5688C186.354 80.9288 189.024 80.9387 190.674 82.5887C192.314 84.2387 192.304 86.9087 190.654 88.5587C189.004 90.1987 186.324 90.1888 184.684 88.5388C183.044 86.8788 183.054 84.2088 184.704 82.5688Z" fill="#30FF2C"/>
<path d="M164.344 90.0287C164.334 90.0287 164.334 90.0287 164.324 90.0287C163.134 90.0287 162.014 89.5588 161.164 88.7088C160.324 87.8588 159.864 86.7387 159.864 85.5487C159.864 84.3587 160.334 83.2387 161.184 82.3887C162.934 80.6487 165.764 80.6587 167.504 82.4087C169.244 84.1587 169.234 86.9887 167.484 88.7287C166.644 89.5687 165.534 90.0287 164.344 90.0287ZM164.344 81.5887C163.334 81.5887 162.324 81.9688 161.544 82.7388C160.794 83.4888 160.374 84.4787 160.374 85.5387C160.374 86.5987 160.784 87.5987 161.524 88.3487C162.274 89.0987 163.264 89.5188 164.324 89.5188H164.334C165.384 89.5188 166.384 89.1088 167.134 88.3688C168.684 86.8288 168.694 84.3087 167.154 82.7587C166.384 81.9787 165.364 81.5887 164.344 81.5887Z" fill="#30FF2C"/>
<path d="M138.034 82.5688C139.684 80.9288 142.364 80.9387 144.004 82.5887C145.644 84.2387 145.634 86.9087 143.984 88.5587C142.334 90.1987 139.664 90.1888 138.014 88.5388C136.374 86.8788 136.384 84.2088 138.034 82.5688Z" fill="#30FF2C"/>
<path d="M117.674 90.0287C116.524 90.0287 115.374 89.5888 114.504 88.7088C112.764 86.9588 112.774 84.1288 114.524 82.3888C115.364 81.5488 116.484 81.0887 117.674 81.0887C117.684 81.0887 117.684 81.0887 117.694 81.0887C118.884 81.0887 120.004 81.5588 120.854 82.4088C121.694 83.2588 122.154 84.3788 122.154 85.5688C122.154 86.7588 121.684 87.8788 120.834 88.7288C119.944 89.5988 118.814 90.0287 117.674 90.0287ZM114.874 82.7388C113.324 84.2788 113.314 86.7988 114.854 88.3488C116.394 89.8988 118.914 89.9088 120.464 88.3688C121.214 87.6188 121.634 86.6288 121.634 85.5688C121.634 84.5088 121.224 83.5088 120.484 82.7588C119.734 82.0088 118.744 81.5887 117.684 81.5887H117.674C116.614 81.5887 115.624 81.9988 114.874 82.7388Z" fill="#30FF2C"/>
<path d="M91.3638 82.5688C93.0138 80.9288 95.6938 80.9387 97.3338 82.5887C98.9738 84.2387 98.9638 86.9087 97.3138 88.5587C95.6638 90.1987 92.9838 90.1888 91.3438 88.5388C89.6938 86.8788 89.7038 84.2088 91.3638 82.5688Z" fill="#30FF2C"/>
<path d="M68.0238 82.5688C69.6738 80.9288 72.3538 80.9387 73.9938 82.5887C75.6338 84.2387 75.6238 86.9087 73.9738 88.5587C72.3238 90.1987 69.6438 90.1888 68.0038 88.5388C66.3638 86.8788 66.3738 84.2088 68.0238 82.5688Z" fill="#30FF2C"/>
<path d="M47.6638 90.0287C47.6538 90.0287 47.6538 90.0287 47.6438 90.0287C46.4538 90.0287 45.3338 89.5588 44.4838 88.7088C43.6438 87.8588 43.1838 86.7388 43.1838 85.5488C43.1838 84.3588 43.6538 83.2388 44.5038 82.3888C45.3438 81.5488 46.4638 81.0887 47.6538 81.0887C47.6638 81.0887 47.6638 81.0887 47.6738 81.0887C48.8638 81.0887 49.9838 81.5588 50.8338 82.4088C52.5738 84.1588 52.5638 86.9888 50.8138 88.7288C49.9638 89.5688 48.8438 90.0287 47.6638 90.0287ZM47.6638 81.5887C46.6138 81.5887 45.6138 81.9988 44.8638 82.7388C44.1138 83.4888 43.6938 84.4788 43.6938 85.5388C43.6938 86.5988 44.1038 87.5988 44.8438 88.3488C45.5938 89.0988 46.5838 89.5188 47.6438 89.5188H47.6538C48.7038 89.5188 49.7038 89.1088 50.4538 88.3688C52.0038 86.8288 52.0138 84.3088 50.4738 82.7588C49.7238 82.0088 48.7338 81.5887 47.6738 81.5887H47.6638Z" fill="#30FF2C"/>
<path d="M24.3238 90.0287C23.1738 90.0287 22.0238 89.5888 21.1538 88.7088C19.4138 86.9588 19.4238 84.1287 21.1738 82.3887C22.9238 80.6487 25.7538 80.6587 27.4938 82.4087C29.2338 84.1587 29.2238 86.9887 27.4738 88.7287C26.6038 89.5987 25.4638 90.0287 24.3238 90.0287ZM24.3238 81.5887C23.2738 81.5887 22.2738 81.9988 21.5238 82.7388C20.7738 83.4888 20.3538 84.4787 20.3538 85.5387C20.3538 86.5987 20.7638 87.5987 21.5038 88.3487C23.0438 89.8987 25.5638 89.9088 27.1138 88.3688C28.6638 86.8288 28.6738 84.3087 27.1338 82.7587C26.3838 82.0087 25.3938 81.5887 24.3338 81.5887C24.3338 81.5887 24.3338 81.5887 24.3238 81.5887Z" fill="#30FF2C"/>
<path d="M1.24378 58.9888C2.89378 57.3488 5.57378 57.3588 7.21378 59.0088C8.85378 60.6588 8.84378 63.3288 7.19378 64.9788C5.54378 66.6188 2.86378 66.6088 1.22378 64.9588C-0.416225 63.2988 -0.406224 60.6288 1.24378 58.9888Z" fill="#30FF2C"/>
<path d="M245.774 41.7887C247.424 40.1487 250.104 40.1587 251.744 41.8087C253.384 43.4587 253.374 46.1387 251.724 47.7787C250.074 49.4187 247.394 49.4087 245.754 47.7587C244.114 46.0987 244.124 43.4287 245.774 41.7887Z" fill="#30FF2C"/>
<path d="M225.414 49.2487C224.264 49.2487 223.114 48.8087 222.244 47.9287C220.504 46.1787 220.514 43.3487 222.264 41.6087C223.104 40.7687 224.224 40.3087 225.414 40.3087C225.424 40.3087 225.424 40.3087 225.434 40.3087C226.624 40.3087 227.744 40.7787 228.594 41.6287C230.334 43.3787 230.324 46.2087 228.574 47.9487C227.684 48.8187 226.544 49.2487 225.414 49.2487ZM225.404 40.8087C224.344 40.8087 223.354 41.2187 222.604 41.9587C221.854 42.7087 221.434 43.6987 221.434 44.7587C221.434 45.8187 221.844 46.8187 222.584 47.5687C224.124 49.1187 226.644 49.1287 228.194 47.5887C229.744 46.0487 229.754 43.5287 228.214 41.9787C227.464 41.2287 226.474 40.8087 225.414 40.8087C225.414 40.8087 225.414 40.8087 225.404 40.8087Z" fill="#30FF2C"/>
<path d="M199.104 41.7887C200.754 40.1487 203.424 40.1587 205.074 41.8087C206.724 43.4587 206.704 46.1387 205.054 47.7787C203.404 49.4187 200.724 49.4087 199.084 47.7587C197.434 46.0987 197.444 43.4287 199.104 41.7887Z" fill="#30FF2C"/>
<path d="M178.734 49.2487C177.584 49.2487 176.434 48.8087 175.564 47.9287C173.824 46.1787 173.834 43.3487 175.584 41.6087C176.424 40.7687 177.544 40.3087 178.734 40.3087C178.744 40.3087 178.744 40.3087 178.754 40.3087C179.944 40.3087 181.064 40.7787 181.914 41.6287C182.754 42.4787 183.214 43.5987 183.214 44.7887C183.214 45.9787 182.744 47.0987 181.894 47.9487C181.014 48.8187 179.874 49.2487 178.734 49.2487ZM178.734 40.8087C177.684 40.8087 176.684 41.2187 175.934 41.9587C174.384 43.4987 174.374 46.0187 175.914 47.5687C177.454 49.1187 179.974 49.1287 181.524 47.5887C182.274 46.8387 182.694 45.8487 182.694 44.7887C182.694 43.7287 182.284 42.7287 181.544 41.9787C180.794 41.2287 179.804 40.8087 178.744 40.8087C178.744 40.8087 178.744 40.8087 178.734 40.8087Z" fill="#30FF2C"/>
<path d="M152.424 41.7887C154.074 40.1487 156.754 40.1587 158.394 41.8087C160.034 43.4587 160.024 46.1387 158.374 47.7787C156.724 49.4187 154.044 49.4087 152.404 47.7587C150.764 46.0987 150.774 43.4287 152.424 41.7887Z" fill="#30FF2C"/>
<path d="M129.094 41.7887C130.744 40.1487 133.424 40.1587 135.064 41.8087C136.704 43.4587 136.694 46.1387 135.044 47.7787C133.394 49.4187 130.714 49.4087 129.074 47.7587C127.424 46.0987 127.434 43.4287 129.094 41.7887Z" fill="#30FF2C"/>
<path d="M108.724 49.2488C107.574 49.2488 106.424 48.8088 105.554 47.9288C104.714 47.0788 104.254 45.9588 104.254 44.7588C104.254 43.5688 104.724 42.4488 105.574 41.5988C106.414 40.7588 107.534 40.2988 108.724 40.2988C108.734 40.2988 108.734 40.2988 108.744 40.2988C109.934 40.2988 111.054 40.7688 111.904 41.6188C113.644 43.3688 113.634 46.1988 111.884 47.9388C111.004 48.8188 109.864 49.2488 108.724 49.2488ZM108.724 40.8088C107.664 40.8088 106.674 41.2188 105.924 41.9588C105.174 42.7088 104.754 43.6988 104.754 44.7588C104.754 45.8188 105.164 46.8188 105.904 47.5688C107.444 49.1188 109.964 49.1288 111.514 47.5888C113.064 46.0488 113.074 43.5288 111.534 41.9788C110.784 41.2288 109.794 40.8088 108.734 40.8088C108.734 40.8088 108.734 40.8088 108.724 40.8088Z" fill="#30FF2C"/>
<path d="M85.3938 49.2487C84.2438 49.2487 83.0938 48.8087 82.2238 47.9287C80.4838 46.1787 80.4938 43.3487 82.2438 41.6087C83.0838 40.7687 84.2038 40.3087 85.3938 40.3087C85.4038 40.3087 85.4038 40.3087 85.4138 40.3087C86.6038 40.3087 87.7238 40.7787 88.5738 41.6287C89.4138 42.4787 89.8738 43.5987 89.8738 44.7887C89.8738 45.9787 89.4038 47.0987 88.5538 47.9487C87.6738 48.8187 86.5338 49.2487 85.3938 49.2487ZM85.3938 40.8087C84.3438 40.8087 83.3438 41.2187 82.5938 41.9587C81.8438 42.7087 81.4238 43.6987 81.4238 44.7587C81.4238 45.8187 81.8338 46.8187 82.5738 47.5687C84.1138 49.1187 86.6338 49.1287 88.1838 47.5887C88.9338 46.8387 89.3538 45.8487 89.3538 44.7887C89.3538 43.7287 88.9438 42.7287 88.2038 41.9787C87.4538 41.2287 86.4638 40.8087 85.4038 40.8087H85.3938Z" fill="#30FF2C"/>
<path d="M59.0838 41.7887C60.7338 40.1487 63.4138 40.1587 65.0538 41.8087C66.6938 43.4587 66.6838 46.1387 65.0338 47.7787C63.3838 49.4187 60.7138 49.4087 59.0638 47.7587C57.4138 46.0987 57.4238 43.4287 59.0838 41.7887Z" fill="#30FF2C"/>
<path d="M38.7338 41.7887C40.3838 40.1487 43.0638 40.1587 44.7038 41.8087C46.3438 43.4587 46.3338 46.1387 44.6838 47.7787C43.0338 49.4187 40.3638 49.4087 38.7138 47.7587C37.0738 46.0987 37.0838 43.4287 38.7338 41.7887Z" fill="#30FF2C"/>
<path d="M142.614 219.529C142.604 219.529 142.604 219.529 142.594 219.529C141.404 219.529 140.284 219.059 139.434 218.209C138.594 217.359 138.134 216.239 138.134 215.049C138.134 213.859 138.604 212.739 139.454 211.889C141.204 210.149 144.034 210.159 145.774 211.909C147.514 213.659 147.504 216.489 145.754 218.229C144.914 219.069 143.804 219.529 142.614 219.529ZM139.644 212.059L139.824 212.239C139.074 212.989 138.654 213.979 138.654 215.039C138.654 216.099 139.064 217.099 139.804 217.849C140.554 218.599 141.544 219.019 142.604 219.019C142.614 219.019 142.614 219.019 142.624 219.019C143.674 219.019 144.674 218.609 145.424 217.869C146.974 216.329 146.984 213.809 145.444 212.259C143.904 210.709 141.384 210.699 139.834 212.239L139.644 212.059Z" fill="#30FF2C"/>
<path d="M116.304 212.059C117.954 210.419 120.634 210.429 122.274 212.079C123.914 213.729 123.904 216.399 122.254 218.049C120.604 219.689 117.924 219.679 116.284 218.029C114.644 216.379 114.654 213.699 116.304 212.059Z" fill="#30FF2C"/>
<path d="M92.9637 212.059C94.6137 210.419 97.2937 210.429 98.9337 212.079C100.574 213.729 100.564 216.399 98.9137 218.049C97.2637 219.689 94.5837 219.679 92.9437 218.029C91.3037 216.379 91.3137 213.699 92.9637 212.059Z" fill="#30FF2C"/>
<path d="M72.6038 219.529C72.5938 219.529 72.5938 219.529 72.5838 219.529C71.3938 219.529 70.2738 219.059 69.4238 218.209C67.6838 216.459 67.6938 213.629 69.4438 211.889C71.1938 210.149 74.0238 210.159 75.7638 211.909C76.6038 212.759 77.0638 213.879 77.0638 215.079C77.0638 216.269 76.5938 217.389 75.7438 218.239C74.9038 219.069 73.7938 219.529 72.6038 219.529ZM69.8038 212.239C68.2538 213.779 68.2438 216.299 69.7838 217.849C70.5338 218.599 71.5238 219.019 72.5838 219.019C73.6438 219.039 74.6438 218.609 75.3938 217.869C76.1438 217.119 76.5638 216.129 76.5638 215.069C76.5638 214.009 76.1538 213.009 75.4138 212.259C73.8738 210.709 71.3538 210.699 69.8038 212.239Z" fill="#30FF2C"/>
<path d="M49.2638 219.529C49.2538 219.529 49.2538 219.529 49.2438 219.529C48.0538 219.529 46.9338 219.059 46.0838 218.209C44.3438 216.459 44.3538 213.629 46.1038 211.889C47.8538 210.149 50.6838 210.159 52.4238 211.909C54.1638 213.659 54.1538 216.489 52.4038 218.229C51.5738 219.069 50.4538 219.529 49.2638 219.529ZM46.4738 212.239C44.9238 213.779 44.9138 216.299 46.4538 217.849C47.2038 218.599 48.1938 219.019 49.2538 219.019C49.2638 219.019 49.2638 219.019 49.2738 219.019C50.3238 219.019 51.3238 218.609 52.0738 217.869C53.6238 216.329 53.6338 213.809 52.0938 212.259C50.5438 210.709 48.0238 210.699 46.4738 212.239Z" fill="#30FF2C"/>
<path d="M139.394 235.639C141.044 233.999 143.724 234.009 145.364 235.659C147.004 237.309 146.994 239.989 145.344 241.629C143.694 243.269 141.024 243.259 139.374 241.609C137.734 239.949 137.744 237.279 139.394 235.639Z" fill="#30FF2C"/>
<path d="M119.034 243.099C117.884 243.099 116.734 242.659 115.864 241.779C114.124 240.029 114.134 237.199 115.884 235.459C116.724 234.619 117.844 234.159 119.034 234.159C119.044 234.159 119.044 234.159 119.054 234.159C120.244 234.159 121.364 234.629 122.214 235.479C123.054 236.329 123.514 237.449 123.514 238.639C123.514 239.829 123.044 240.949 122.194 241.799C121.314 242.669 120.174 243.099 119.034 243.099ZM119.034 234.669C117.984 234.669 116.984 235.079 116.234 235.819C114.684 237.359 114.674 239.879 116.214 241.429C117.754 242.979 120.274 242.989 121.824 241.449C122.574 240.699 122.994 239.709 122.994 238.649C122.994 237.589 122.584 236.589 121.844 235.839C121.094 235.089 120.104 234.669 119.044 234.669H119.034Z" fill="#30FF2C"/>
<path d="M92.7238 235.639C94.3738 233.999 97.0538 234.009 98.6938 235.659C100.334 237.309 100.324 239.989 98.6737 241.629C97.0237 243.269 94.3438 243.259 92.7038 241.609C91.0638 239.949 91.0738 237.279 92.7238 235.639Z" fill="#30FF2C"/>
<path d="M69.3838 235.639C71.0338 233.999 73.7138 234.009 75.3538 235.659C76.9938 237.309 76.9838 239.989 75.3338 241.629C73.6838 243.269 71.0038 243.259 69.3638 241.609C67.7238 239.949 67.7338 237.279 69.3838 235.639Z" fill="#30FF2C"/>
<path d="M49.0238 243.099C47.8738 243.099 46.7238 242.659 45.8538 241.779C45.0138 240.929 44.5538 239.809 44.5538 238.609C44.5538 237.419 45.0238 236.299 45.8738 235.449C46.7138 234.609 47.8338 234.149 49.0238 234.149C49.0338 234.149 49.0338 234.149 49.0438 234.149C50.2338 234.149 51.3538 234.619 52.2038 235.469C53.9438 237.219 53.9338 240.049 52.1838 241.789C51.3038 242.669 50.1638 243.099 49.0238 243.099ZM49.0238 234.669C47.9738 234.669 46.9738 235.079 46.2238 235.819C45.4738 236.569 45.0538 237.559 45.0538 238.619C45.0538 239.679 45.4638 240.679 46.2038 241.429C47.7438 242.979 50.2638 242.989 51.8138 241.449C53.3638 239.909 53.3738 237.389 51.8338 235.839C51.0838 235.089 50.0938 234.669 49.0338 234.669H49.0238Z" fill="#30FF2C"/>
<path d="M130.454 194.859C132.104 193.219 134.774 193.229 136.424 194.879C138.074 196.529 138.054 199.209 136.404 200.849C134.754 202.489 132.074 202.479 130.434 200.829C128.794 199.179 128.804 196.499 130.454 194.859Z" fill="#30FF2C"/>
<path d="M110.094 202.319C108.944 202.319 107.794 201.879 106.924 200.999C106.084 200.149 105.624 199.029 105.624 197.839C105.624 196.649 106.094 195.529 106.944 194.679C107.784 193.839 108.904 193.379 110.094 193.379C110.104 193.379 110.104 193.379 110.114 193.379C111.304 193.379 112.424 193.849 113.274 194.699C115.014 196.449 115.004 199.279 113.254 201.019C112.364 201.889 111.234 202.319 110.094 202.319ZM110.094 193.889C109.044 193.889 108.044 194.299 107.294 195.039C106.544 195.789 106.124 196.779 106.124 197.839C106.124 198.899 106.534 199.899 107.274 200.649C108.814 202.199 111.334 202.209 112.884 200.669C114.434 199.129 114.444 196.609 112.904 195.059C112.154 194.309 111.164 193.889 110.104 193.889H110.094Z" fill="#30FF2C"/>
<path d="M86.7537 202.319C85.6037 202.319 84.4537 201.879 83.5837 200.999C81.8437 199.249 81.8537 196.419 83.6037 194.679C84.4437 193.839 85.5637 193.379 86.7537 193.379C86.7637 193.379 86.7637 193.379 86.7737 193.379C87.9637 193.379 89.0838 193.849 89.9338 194.699C91.6738 196.449 91.6637 199.279 89.9137 201.019C89.0337 201.889 87.8937 202.319 86.7537 202.319ZM86.7537 193.889C85.6937 193.889 84.7037 194.299 83.9537 195.039C82.4037 196.579 82.3938 199.099 83.9338 200.649C85.4738 202.199 87.9938 202.209 89.5438 200.669C90.2938 199.919 90.7137 198.929 90.7137 197.869C90.7137 196.809 90.3038 195.809 89.5638 195.059C88.8138 194.309 87.8238 193.889 86.7638 193.889H86.7537Z" fill="#30FF2C"/>
<path d="M60.4438 194.859C62.0938 193.219 64.7738 193.229 66.4138 194.879C68.0538 196.529 68.0438 199.209 66.3938 200.849C64.7438 202.489 62.0738 202.479 60.4238 200.829C58.7838 199.179 58.7938 196.499 60.4438 194.859Z" fill="#30FF2C"/>
<path d="M40.0938 194.859C41.7438 193.219 44.4238 193.229 46.0638 194.879C47.7038 196.529 47.6938 199.209 46.0438 200.849C44.3938 202.489 41.7238 202.479 40.0738 200.829C38.4338 199.179 38.4438 196.499 40.0938 194.859Z" fill="#30FF2C"/>
<path d="M245.774 152.759C247.424 151.119 250.104 151.129 251.744 152.779C253.384 154.429 253.374 157.109 251.724 158.749C250.074 160.389 247.394 160.379 245.754 158.729C244.114 157.079 244.124 154.409 245.774 152.759Z" fill="#30FF2C"/>
<path d="M225.414 160.229C225.404 160.229 225.404 160.229 225.394 160.229C224.204 160.229 223.084 159.759 222.234 158.909C220.494 157.159 220.504 154.329 222.254 152.589C224.004 150.849 226.834 150.859 228.574 152.609C230.314 154.359 230.304 157.189 228.554 158.929C227.714 159.769 226.594 160.229 225.414 160.229ZM222.434 152.759L222.614 152.939C221.064 154.479 221.054 156.999 222.594 158.549C223.344 159.299 224.334 159.719 225.394 159.719C225.404 159.719 225.404 159.719 225.414 159.719C226.464 159.719 227.464 159.309 228.214 158.569C228.964 157.819 229.384 156.829 229.384 155.769C229.384 154.709 228.974 153.709 228.234 152.959C226.694 151.409 224.174 151.399 222.624 152.939L222.434 152.759Z" fill="#30FF2C"/>
<path d="M199.104 152.759C200.754 151.119 203.424 151.129 205.074 152.779C206.714 154.429 206.704 157.109 205.054 158.749C203.404 160.389 200.724 160.379 199.084 158.729C197.434 157.079 197.444 154.409 199.104 152.759Z" fill="#30FF2C"/>
<path d="M178.734 160.229C178.724 160.229 178.724 160.229 178.714 160.229C177.524 160.229 176.404 159.759 175.554 158.909C173.814 157.159 173.824 154.329 175.574 152.589C176.414 151.749 177.534 151.289 178.724 151.289C178.734 151.289 178.734 151.289 178.744 151.289C179.934 151.289 181.054 151.759 181.904 152.609C182.744 153.459 183.204 154.579 183.204 155.779C183.204 156.969 182.734 158.089 181.884 158.939C181.044 159.769 179.924 160.229 178.734 160.229ZM175.944 152.939C174.394 154.479 174.384 156.999 175.924 158.549C176.674 159.299 177.664 159.719 178.724 159.719H178.734C179.794 159.719 180.784 159.309 181.534 158.569C182.284 157.819 182.704 156.829 182.704 155.769C182.704 154.709 182.294 153.709 181.554 152.959C180.804 152.209 179.814 151.789 178.754 151.789H178.744C177.684 151.789 176.684 152.199 175.944 152.939Z" fill="#30FF2C"/>
<path d="M152.424 152.759C154.074 151.119 156.754 151.129 158.394 152.779C160.034 154.429 160.024 157.109 158.374 158.749C156.724 160.389 154.044 160.379 152.404 158.729C150.764 157.079 150.774 154.409 152.424 152.759Z" fill="#30FF2C"/>
<path d="M129.094 152.759C130.744 151.119 133.424 151.129 135.064 152.779C136.704 154.429 136.694 157.109 135.044 158.749C133.394 160.389 130.714 160.379 129.074 158.729C127.424 157.079 127.434 154.409 129.094 152.759Z" fill="#30FF2C"/>
<path d="M140.764 173.349C142.414 171.709 145.094 171.719 146.734 173.369C148.374 175.019 148.364 177.699 146.714 179.339C145.064 180.979 142.384 180.969 140.744 179.319C139.094 177.669 139.104 174.989 140.764 173.349Z" fill="#30FF2C"/>
<path d="M120.394 180.809C119.244 180.809 118.094 180.369 117.224 179.489C115.484 177.739 115.494 174.909 117.244 173.169C118.084 172.329 119.204 171.869 120.394 171.869C120.404 171.869 120.404 171.869 120.414 171.869C121.604 171.869 122.724 172.339 123.574 173.189C124.414 174.039 124.874 175.159 124.874 176.359C124.874 177.549 124.404 178.669 123.554 179.519C122.674 180.379 121.534 180.809 120.394 180.809ZM120.394 172.379C119.344 172.379 118.344 172.789 117.594 173.529C116.044 175.069 116.034 177.589 117.574 179.139C119.114 180.689 121.634 180.699 123.184 179.159C123.934 178.409 124.354 177.419 124.354 176.359C124.354 175.299 123.944 174.299 123.204 173.549C122.454 172.799 121.464 172.379 120.404 172.379C120.404 172.379 120.404 172.379 120.394 172.379Z" fill="#30FF2C"/>
<path d="M94.0837 173.349C95.7337 171.709 98.4137 171.719 100.054 173.369C101.694 175.019 101.684 177.699 100.034 179.339C98.3837 180.979 95.7037 180.969 94.0637 179.319C92.4237 177.669 92.4337 174.989 94.0837 173.349Z" fill="#30FF2C"/>
<path d="M70.7538 173.349C72.4038 171.709 75.0838 171.719 76.7238 173.369C78.3638 175.019 78.3538 177.699 76.7038 179.339C75.0538 180.979 72.3738 180.969 70.7338 179.319C69.0838 177.669 69.0938 174.989 70.7538 173.349Z" fill="#30FF2C"/>
<path d="M108.724 160.229C108.714 160.229 108.714 160.229 108.704 160.229C107.514 160.229 106.394 159.759 105.544 158.909C104.704 158.059 104.244 156.939 104.244 155.749C104.244 154.559 104.714 153.439 105.564 152.589C107.314 150.849 110.144 150.859 111.884 152.609C113.624 154.359 113.614 157.189 111.864 158.929C111.034 159.769 109.914 160.229 108.724 160.229ZM105.754 152.759L105.934 152.939C105.184 153.689 104.764 154.679 104.764 155.739C104.764 156.799 105.174 157.799 105.914 158.549C106.664 159.299 107.654 159.719 108.714 159.719C108.724 159.719 108.724 159.719 108.734 159.719C109.784 159.719 110.784 159.309 111.534 158.569C113.084 157.029 113.094 154.509 111.554 152.959C110.014 151.409 107.494 151.399 105.944 152.939L105.754 152.759Z" fill="#30FF2C"/>
<path d="M85.3938 160.229C85.3838 160.229 85.3837 160.229 85.3737 160.229C84.1837 160.229 83.0638 159.759 82.2138 158.909C80.4738 157.159 80.4838 154.329 82.2338 152.589C83.9838 150.849 86.8138 150.859 88.5538 152.609C89.3938 153.459 89.8538 154.579 89.8538 155.779C89.8538 156.969 89.3837 158.089 88.5337 158.939C87.6937 159.769 86.5838 160.229 85.3938 160.229ZM82.5938 152.939C81.0438 154.479 81.0338 156.999 82.5738 158.549C83.3238 159.299 84.3137 159.719 85.3737 159.719H85.3838C86.4438 159.719 87.4338 159.309 88.1838 158.569C88.9338 157.819 89.3538 156.829 89.3538 155.769C89.3538 154.709 88.9438 153.709 88.2038 152.959C87.4538 152.209 86.4638 151.789 85.4038 151.789H85.3938C84.3338 151.789 83.3438 152.199 82.5938 152.939Z" fill="#30FF2C"/>
<path d="M59.0838 152.759C60.7338 151.119 63.4138 151.129 65.0538 152.779C66.6938 154.429 66.6838 157.109 65.0338 158.749C63.3838 160.389 60.7138 160.379 59.0638 158.729C57.4138 157.079 57.4238 154.409 59.0838 152.759Z" fill="#30FF2C"/>
<path d="M38.7338 152.759C40.3838 151.119 43.0638 151.129 44.7038 152.779C46.3438 154.429 46.3338 157.109 44.6838 158.749C43.0338 160.389 40.3638 160.379 38.7138 158.729C37.0738 157.079 37.0838 154.409 38.7338 152.759Z" fill="#30FF2C"/>
<path d="M1.24378 82.5688C2.89378 80.9288 5.57378 80.9387 7.21378 82.5887C8.85378 84.2387 8.84378 86.9087 7.19378 88.5587C5.54378 90.1987 2.86378 90.1888 1.22378 88.5388C-0.416225 86.8788 -0.406224 84.2088 1.24378 82.5688Z" fill="#30FF2C"/>
<path d="M196.684 114.609C195.534 114.609 194.384 114.169 193.514 113.289C192.674 112.439 192.214 111.319 192.214 110.119C192.214 108.929 192.684 107.809 193.534 106.959C194.374 106.119 195.494 105.659 196.684 105.659C196.694 105.659 196.694 105.659 196.704 105.659C197.894 105.659 199.014 106.129 199.864 106.979C201.604 108.729 201.594 111.559 199.844 113.299C198.964 114.179 197.824 114.609 196.684 114.609ZM196.684 106.179C195.624 106.179 194.634 106.589 193.884 107.329C193.134 108.079 192.714 109.069 192.714 110.129C192.714 111.189 193.124 112.189 193.864 112.939C195.404 114.489 197.924 114.499 199.474 112.959C201.024 111.419 201.034 108.899 199.494 107.349C198.744 106.599 197.754 106.179 196.694 106.179C196.694 106.179 196.694 106.179 196.684 106.179Z" fill="#30FF2C"/>
<path d="M173.344 114.609C172.194 114.609 171.044 114.169 170.174 113.289C169.334 112.439 168.874 111.319 168.874 110.119C168.874 108.929 169.344 107.809 170.194 106.959C171.944 105.219 174.774 105.229 176.514 106.979C178.254 108.729 178.244 111.559 176.494 113.299C175.624 114.179 174.484 114.609 173.344 114.609ZM173.344 106.179C172.334 106.179 171.324 106.559 170.544 107.329C169.794 108.079 169.374 109.069 169.374 110.129C169.374 111.189 169.784 112.189 170.524 112.939C172.064 114.489 174.584 114.499 176.134 112.959C177.684 111.419 177.694 108.899 176.154 107.349C175.394 106.569 174.374 106.179 173.344 106.179Z" fill="#30FF2C"/>
<path d="M150.274 107.149C151.924 105.509 154.594 105.519 156.244 107.169C157.894 108.819 157.874 111.499 156.224 113.139C154.574 114.779 151.894 114.769 150.254 113.119C148.614 111.469 148.614 108.799 150.274 107.149Z" fill="#30FF2C"/>
<path d="M98.8138 132.619C100.464 130.979 103.144 130.989 104.784 132.639C106.424 134.289 106.414 136.959 104.764 138.609C103.114 140.249 100.444 140.239 98.7938 138.589C97.1438 136.929 97.1538 134.259 98.8138 132.619Z" fill="#30FF2C"/>
<path d="M75.4738 132.619C77.1238 130.979 79.8038 130.989 81.4438 132.639C83.0838 134.289 83.0738 136.959 81.4238 138.609C79.7738 140.249 77.1038 140.239 75.4538 138.589C73.8138 136.929 73.8238 134.259 75.4738 132.619Z" fill="#30FF2C"/>
<path d="M55.1138 140.079C53.9638 140.079 52.8138 139.639 51.9438 138.759C50.2038 137.009 50.2138 134.179 51.9638 132.439C53.7138 130.699 56.5438 130.709 58.2838 132.459C59.1238 133.309 59.5838 134.429 59.5838 135.629C59.5838 136.819 59.1138 137.939 58.2638 138.789C57.3838 139.649 56.2538 140.079 55.1138 140.079ZM52.3138 132.789C50.7638 134.329 50.7538 136.849 52.2938 138.399C53.8338 139.949 56.3538 139.959 57.9038 138.419C58.6538 137.669 59.0738 136.679 59.0738 135.619C59.0738 134.559 58.6638 133.559 57.9238 132.809C56.3838 131.259 53.8638 131.249 52.3138 132.789Z" fill="#30FF2C"/>
<path d="M31.7738 140.079C30.6238 140.079 29.4738 139.639 28.6038 138.759C26.8638 137.009 26.8738 134.179 28.6238 132.439C30.3738 130.699 33.2038 130.709 34.9438 132.459C36.6838 134.209 36.6738 137.039 34.9238 138.779C34.0538 139.649 32.9138 140.079 31.7738 140.079ZM28.9838 132.799C27.4338 134.339 27.4238 136.859 28.9638 138.409C30.5038 139.959 33.0238 139.969 34.5738 138.429C36.1238 136.889 36.1338 134.369 34.5938 132.819C33.0538 131.269 30.5338 131.259 28.9838 132.799Z" fill="#30FF2C"/>
<path d="M5.46378 132.619C7.11378 130.979 9.79377 130.989 11.4338 132.639C13.0738 134.289 13.0638 136.959 11.4138 138.609C9.76377 140.249 7.08378 140.239 5.44378 138.589C3.80378 136.929 3.81378 134.259 5.46378 132.619Z" fill="#30FF2C"/>
<path d="M254.954 20.6988C256.604 19.0588 259.284 19.0687 260.924 20.7187C262.564 22.3687 262.554 25.0487 260.904 26.6887C259.254 28.3287 256.574 28.3188 254.934 26.6688C253.294 25.0088 253.304 22.3388 254.954 20.6988Z" fill="#30FF2C"/>
<path d="M231.624 20.6988C233.274 19.0588 235.954 19.0687 237.594 20.7187C239.234 22.3687 239.224 25.0487 237.574 26.6887C235.924 28.3287 233.244 28.3188 231.604 26.6688C229.954 25.0088 229.964 22.3388 231.624 20.6988Z" fill="#30FF2C"/>
<path d="M211.254 28.1587C211.244 28.1587 211.244 28.1587 211.234 28.1587C210.044 28.1587 208.924 27.6887 208.074 26.8387C207.234 25.9887 206.774 24.8687 206.774 23.6687C206.774 22.4787 207.244 21.3587 208.094 20.5087C208.934 19.6687 210.054 19.2087 211.244 19.2087C211.254 19.2087 211.254 19.2087 211.264 19.2087C212.454 19.2087 213.574 19.6787 214.424 20.5287C216.164 22.2787 216.154 25.1087 214.404 26.8487C213.564 27.6987 212.444 28.1587 211.254 28.1587ZM211.254 19.7187C210.204 19.7187 209.204 20.1287 208.454 20.8687C207.704 21.6187 207.284 22.6087 207.284 23.6687C207.284 24.7287 207.694 25.7287 208.434 26.4787C209.184 27.2287 210.174 27.6487 211.234 27.6487H211.244C212.294 27.6487 213.294 27.2387 214.044 26.4987C215.594 24.9587 215.604 22.4387 214.064 20.8887C213.314 20.1387 212.324 19.7187 211.264 19.7187C211.264 19.7187 211.264 19.7187 211.254 19.7187Z" fill="#30FF2C"/>
<path d="M187.924 28.1588C186.774 28.1588 185.624 27.7187 184.754 26.8387C183.014 25.0887 183.024 22.2588 184.774 20.5188C185.614 19.6788 186.734 19.2188 187.924 19.2188C187.934 19.2188 187.934 19.2188 187.944 19.2188C189.134 19.2188 190.254 19.6888 191.104 20.5388C191.944 21.3888 192.404 22.5088 192.404 23.6988C192.404 24.8888 191.934 26.0088 191.084 26.8588C190.204 27.7288 189.064 28.1588 187.924 28.1588ZM187.924 19.7188C186.874 19.7188 185.874 20.1288 185.124 20.8688C183.574 22.4088 183.564 24.9288 185.104 26.4788C186.644 28.0288 189.164 28.0387 190.714 26.4987C191.464 25.7487 191.884 24.7588 191.884 23.6988C191.884 22.6388 191.474 21.6388 190.734 20.8888C189.984 20.1388 188.994 19.7188 187.934 19.7188H187.924Z" fill="#30FF2C"/>
<path d="M161.614 20.6988C163.264 19.0588 165.944 19.0687 167.584 20.7187C169.224 22.3687 169.214 25.0487 167.564 26.6887C165.914 28.3287 163.234 28.3188 161.594 26.6688C159.954 25.0088 159.954 22.3388 161.614 20.6988Z" fill="#30FF2C"/>
<path d="M129.334 114.609C128.184 114.609 127.034 114.169 126.164 113.289C125.324 112.439 124.864 111.319 124.864 110.119C124.864 108.929 125.334 107.809 126.184 106.959C127.934 105.219 130.764 105.229 132.504 106.979C134.244 108.729 134.234 111.559 132.484 113.299C131.614 114.179 130.474 114.609 129.334 114.609ZM129.334 106.179C128.324 106.179 127.314 106.559 126.534 107.329C125.784 108.079 125.364 109.069 125.364 110.129C125.364 111.189 125.774 112.189 126.514 112.939C128.054 114.489 130.574 114.499 132.124 112.959C133.674 111.419 133.684 108.899 132.144 107.349C131.384 106.569 130.364 106.179 129.334 106.179Z" fill="#30FF2C"/>
<path d="M103.034 107.149C104.684 105.509 107.354 105.519 109.004 107.169C110.654 108.819 110.634 111.499 108.984 113.139C107.334 114.779 104.654 114.769 103.014 113.119C101.374 111.469 101.374 108.799 103.034 107.149Z" fill="#30FF2C"/>
<path d="M79.6938 107.149C81.3438 105.509 84.0238 105.519 85.6638 107.169C87.3038 108.819 87.2938 111.499 85.6438 113.139C83.9938 114.779 81.3238 114.769 79.6738 113.119C78.0238 111.469 78.0438 108.799 79.6938 107.149Z" fill="#30FF2C"/>
<path d="M59.3338 114.609C58.1838 114.609 57.0338 114.169 56.1638 113.289C54.4238 111.539 54.4338 108.709 56.1838 106.969C57.0238 106.129 58.1438 105.669 59.3338 105.669C59.3438 105.669 59.3438 105.669 59.3538 105.669C60.5438 105.669 61.6638 106.139 62.5138 106.989C63.3538 107.839 63.8138 108.959 63.8138 110.159C63.8138 111.349 63.3438 112.469 62.4938 113.319C61.6038 114.179 60.4638 114.609 59.3338 114.609ZM59.3338 106.179C58.2738 106.179 57.2838 106.589 56.5338 107.329C54.9838 108.869 54.9738 111.389 56.5138 112.939C58.0538 114.489 60.5738 114.499 62.1238 112.959C62.8738 112.209 63.2938 111.219 63.2938 110.159C63.2938 109.099 62.8838 108.099 62.1438 107.349C61.3938 106.599 60.4038 106.179 59.3438 106.179C59.3338 106.179 59.3338 106.179 59.3338 106.179Z" fill="#30FF2C"/>
<path d="M35.9938 114.609C34.8438 114.609 33.6938 114.169 32.8238 113.289C31.9838 112.439 31.5238 111.319 31.5238 110.119C31.5238 108.929 31.9938 107.809 32.8438 106.959C33.6838 106.119 34.8038 105.659 35.9938 105.659C36.0038 105.659 36.0038 105.659 36.0138 105.659C37.2038 105.659 38.3238 106.129 39.1738 106.979C40.9138 108.729 40.9038 111.559 39.1538 113.299C38.2738 114.179 37.1338 114.609 35.9938 114.609ZM35.9938 106.179C34.9338 106.179 33.9438 106.589 33.1938 107.329C32.4438 108.079 32.0238 109.069 32.0238 110.129C32.0238 111.189 32.4338 112.189 33.1738 112.939C34.7138 114.489 37.2338 114.499 38.7838 112.959C40.3338 111.419 40.3438 108.899 38.8038 107.349C38.0538 106.599 37.0638 106.179 36.0038 106.179H35.9938Z" fill="#30FF2C"/>
<path d="M9.68378 107.149C11.3338 105.509 14.0138 105.519 15.6538 107.169C17.2938 108.819 17.2838 111.499 15.6338 113.139C13.9838 114.779 11.3038 114.769 9.66378 113.119C8.02378 111.469 8.03378 108.799 9.68378 107.149Z" fill="#30FF2C"/>
</svg>
