<svg width="359" height="240" viewBox="0 0 359 240" fill="none" xmlns="http://www.w3.org/2000/svg">
<path d="M54.8071 235.86L54.4571 235.51L120.907 169.05H121.007L358.257 169.83L358.247 170.33L121.117 169.55L54.8071 235.86Z" fill="url(#paint0_linear_14_2006)"/>
<path fill-rule="evenodd" clip-rule="evenodd" d="M54.8071 236.567L53.75 235.51L120.7 168.55H121.009L358.767 169.332L358.737 170.832L121.324 170.051L54.8071 236.567ZM121.119 169.05L120.907 169.05L54.4571 235.51L54.8071 235.86L121.117 169.55L358.247 170.33L358.257 169.83L357.757 169.828L357.757 169.82L358.249 169.83M121.119 169.05L357.757 169.828L121.119 169.05Z" fill="url(#paint1_linear_14_2006)"/>
<path d="M44.8571 236.96L44.5071 236.61L120.907 160.21H121.007L358.257 160.99L358.247 161.49L121.117 160.71L44.8571 236.96Z" fill="url(#paint2_linear_14_2006)"/>
<path fill-rule="evenodd" clip-rule="evenodd" d="M44.8572 237.667L43.8 236.61L120.7 159.71H121.009L358.767 160.492L358.737 161.992L121.324 161.211L44.8572 237.667ZM121.119 160.21L120.907 160.21L44.5072 236.61L44.8572 236.96L121.117 160.71L358.247 161.49L358.257 160.99L357.757 160.988L357.757 160.98L358.249 160.99M121.119 160.21L357.757 160.988L121.119 160.21Z" fill="url(#paint3_linear_14_2006)"/>
<path d="M41.6272 231.35L41.2772 230.99L120.907 151.36H121.007L358.257 152.14L358.247 152.64L121.117 151.86L41.6272 231.35Z" fill="url(#paint4_linear_14_2006)"/>
<path fill-rule="evenodd" clip-rule="evenodd" d="M41.6222 232.062L40.575 230.985L120.7 150.86H121.009L358.767 151.642L358.737 153.142L121.324 152.361L41.6222 232.062ZM121.119 151.36L120.907 151.36L41.2772 230.99L41.6272 231.35L121.117 151.86L358.247 152.64L358.257 152.14L357.757 152.138L357.757 152.13L358.249 152.14M121.119 151.36L357.757 152.138L121.119 151.36Z" fill="url(#paint5_linear_14_2006)"/>
<path d="M25.2071 238.92L24.8571 238.57L120.907 142.52H121.007L358.257 143.3L358.247 143.8L121.117 143.02L25.2071 238.92Z" fill="url(#paint6_linear_14_2006)"/>
<path fill-rule="evenodd" clip-rule="evenodd" d="M25.2071 239.627L24.15 238.57L120.7 142.02H121.009L358.767 142.802L358.737 144.302L121.324 143.521L25.2071 239.627ZM121.119 142.52L120.907 142.52L24.8571 238.57L25.2071 238.92L121.117 143.02L358.247 143.8L358.257 143.3L357.757 143.298L357.757 143.29L358.249 143.3M121.119 142.52L357.757 143.298L121.119 142.52Z" fill="url(#paint7_linear_14_2006)"/>
<path d="M22.4471 232.83L22.0971 232.48L120.907 133.67H121.007L358.257 134.45L358.247 134.95L121.117 134.17L22.4471 232.83Z" fill="url(#paint8_linear_14_2006)"/>
<path fill-rule="evenodd" clip-rule="evenodd" d="M22.4471 233.537L21.39 232.48L120.7 133.17H121.009L358.767 133.952L358.737 135.452L121.324 134.671L22.4471 233.537ZM121.119 133.67L120.907 133.67L22.0971 232.48L22.4471 232.83L121.117 134.17L358.247 134.95L358.257 134.45L357.757 134.448L357.757 134.44L358.249 134.45M121.119 133.67L357.757 134.448L121.119 133.67Z" fill="url(#paint9_linear_14_2006)"/>
<path d="M13.5271 232.91L13.1771 232.56L120.907 124.83H121.007L358.257 125.61L358.247 126.11L121.117 125.33L13.5271 232.91Z" fill="url(#paint10_linear_14_2006)"/>
<path fill-rule="evenodd" clip-rule="evenodd" d="M13.5271 233.617L12.47 232.56L120.7 124.33H121.009L358.767 125.112L358.737 126.612L121.324 125.831L13.5271 233.617ZM121.119 124.83L120.907 124.83L13.1771 232.56L13.5271 232.91L121.117 125.33L358.247 126.11L358.257 125.61L357.757 125.608L357.757 125.6L358.249 125.61M121.119 124.83L357.757 125.608L121.119 124.83Z" fill="url(#paint11_linear_14_2006)"/>
<path d="M10.1971 227.4L9.8371 227.05L120.907 115.98H121.007L358.257 116.76L358.247 117.26L121.117 116.48L10.1971 227.4Z" fill="url(#paint12_linear_14_2006)"/>
<path fill-rule="evenodd" clip-rule="evenodd" d="M10.202 228.102L9.12494 227.055L120.7 115.48H121.009L358.767 116.262L358.737 117.762L121.324 116.981L10.202 228.102ZM121.119 115.98L120.907 115.98L9.83707 227.05L10.1956 227.399L10.1971 227.4L121.117 116.48L358.247 117.26L358.257 116.76L357.757 116.758L357.757 116.75L358.249 116.76M121.119 115.98L357.757 116.758L121.119 115.98Z" fill="url(#paint13_linear_14_2006)"/>
<path d="M2.86714 225.89L2.50714 225.53L120.907 107.14H121.007L358.257 107.92L358.247 108.42L121.117 107.64L2.86714 225.89Z" fill="url(#paint14_linear_14_2006)"/>
<path fill-rule="evenodd" clip-rule="evenodd" d="M2.86713 226.597L1.79999 225.53L120.7 106.64H121.009L358.767 107.422L358.737 108.922L121.324 108.141L2.86713 226.597ZM121.119 107.14L120.907 107.14L2.50712 225.53L2.51356 225.537L2.86066 225.884L2.86712 225.89L121.117 107.64L358.247 108.42L358.257 107.92L357.757 107.919L357.757 107.91L358.249 107.92M121.119 107.14L357.757 107.919L121.119 107.14Z" fill="url(#paint15_linear_14_2006)"/>
<path d="M3.8271 216.08L3.4671 215.73L120.907 98.29H121.007L358.257 99.07L358.247 99.57L121.117 98.79L3.8271 216.08Z" fill="url(#paint16_linear_14_2006)"/>
<path fill-rule="evenodd" clip-rule="evenodd" d="M3.83204 216.782L2.75494 215.735L120.7 97.79H121.009L358.767 98.5717L358.737 100.072L121.324 99.2907L3.83204 216.782ZM121.119 98.29L120.907 98.29L3.46708 215.73L3.82562 216.079L3.82708 216.08L121.117 98.79L358.247 99.57L358.257 99.07L357.757 99.0684L357.757 99.06L358.249 99.07M121.119 98.29L357.757 99.0684L121.119 98.29Z" fill="url(#paint17_linear_14_2006)"/>
<path d="M6.10715 204.95L5.75714 204.6L120.907 89.45H121.007L358.257 90.23L358.247 90.73L121.117 89.95L6.10715 204.95Z" fill="url(#paint18_linear_14_2006)"/>
<path fill-rule="evenodd" clip-rule="evenodd" d="M6.10712 205.657L5.04999 204.6L120.7 88.95H121.009L358.767 89.7317L358.737 91.2316L121.324 90.4506L6.10712 205.657ZM121.119 89.45L120.907 89.45L5.75711 204.6L6.10712 204.95L121.117 89.95L358.247 90.73L358.257 90.23L357.757 90.2283L357.757 90.22L358.249 90.23M121.119 89.45L357.757 90.2283L121.119 89.45Z" fill="url(#paint19_linear_14_2006)"/>
<path d="M7.23714 194.98L6.87714 194.63L120.907 80.6001H121.007L358.257 81.3801L358.247 81.8801L121.117 81.1001L7.23714 194.98Z" fill="url(#paint20_linear_14_2006)"/>
<path fill-rule="evenodd" clip-rule="evenodd" d="M7.24207 195.682L6.16504 194.635L120.7 80.1001H121.009L358.767 80.8817L358.737 82.3817L121.324 81.6008L7.24207 195.682ZM121.119 80.6001L120.907 80.6001L6.87714 194.63L7.23714 194.98L121.117 81.1001L358.247 81.8801L358.257 81.3801L357.757 81.3784L357.757 81.3701L358.249 81.3801M121.119 80.6001L357.757 81.3784L121.119 80.6001Z" fill="url(#paint21_linear_14_2006)"/>
<path d="M6.12715 187.24L5.77716 186.89L120.907 71.76H121.007L358.257 72.54L358.247 73.04L121.117 72.26L6.12715 187.24Z" fill="url(#paint22_linear_14_2006)"/>
<path fill-rule="evenodd" clip-rule="evenodd" d="M6.1271 187.947L5.07007 186.89L120.7 71.26H121.009L358.767 72.0417L358.737 73.5417L121.324 72.7607L6.1271 187.947ZM121.119 71.76L120.907 71.76L5.77715 186.89L6.12714 187.24L121.117 72.26L358.247 73.04L358.257 72.54L357.757 72.5384L357.757 72.53L358.249 72.54M121.119 71.76L357.757 72.5384L121.119 71.76Z" fill="url(#paint23_linear_14_2006)"/>
<path d="M5.41708 179.11L5.06708 178.75L120.907 62.9102H121.007L358.257 63.6901L358.247 64.1901L121.117 63.4102L5.41708 179.11Z" fill="url(#paint24_linear_14_2006)"/>
<path fill-rule="evenodd" clip-rule="evenodd" d="M5.41204 179.822L4.36493 178.745L120.7 62.4102H121.009L358.767 63.1918L358.737 64.6917L121.324 63.9108L5.41204 179.822ZM121.119 62.9102L120.907 62.9102L5.06707 178.75L5.41708 179.11L121.117 63.4102L358.247 64.1901L358.257 63.6901L357.757 63.6885L357.757 63.6801L358.249 63.6901M121.119 62.9102L357.757 63.6885L121.119 62.9102Z" fill="url(#paint25_linear_14_2006)"/>
<path d="M6.15706 169.53L5.79706 169.17L120.907 54.0701H121.007L358.257 54.8501L358.247 55.3501L121.117 54.5701L6.15706 169.53Z" fill="url(#paint26_linear_14_2006)"/>
<path fill-rule="evenodd" clip-rule="evenodd" d="M6.15704 170.237L5.0899 169.17L120.7 53.5701H121.009L358.767 54.3518L358.737 55.8517L121.323 55.0708L6.15704 170.237ZM121.119 54.0701L120.907 54.0701L5.79703 169.17L5.80348 169.177L6.15057 169.524L6.15703 169.53L121.117 54.5701L358.247 55.3501L358.257 54.8501L357.757 54.8485L357.757 54.8401L358.249 54.8501M121.119 54.0701L357.757 54.8485L121.119 54.0701Z" fill="url(#paint27_linear_14_2006)"/>
<path d="M5.8071 161.02L5.45709 160.67L120.907 45.22H121.007L358.257 45.9999L358.247 46.4999L121.117 45.72L5.8071 161.02Z" fill="url(#paint28_linear_14_2006)"/>
<path fill-rule="evenodd" clip-rule="evenodd" d="M5.80707 161.727L4.74994 160.67L120.7 44.72H121.009L358.767 45.5016L358.737 47.0016L121.323 46.2207L5.80707 161.727ZM121.119 45.22L120.907 45.22L5.45706 160.67L5.80707 161.02L121.117 45.72L358.247 46.4999L358.257 45.9999L357.757 45.9983L357.757 45.9899L358.249 45.9999M121.119 45.22L357.757 45.9983L121.119 45.22Z" fill="url(#paint29_linear_14_2006)"/>
<path d="M5.74715 152.25L5.38715 151.89L120.907 36.3799H121.007L358.257 37.1599L358.247 37.6599L121.117 36.8799L5.74715 152.25Z" fill="url(#paint30_linear_14_2006)"/>
<path fill-rule="evenodd" clip-rule="evenodd" d="M5.74713 152.957L4.67999 151.89L120.7 35.8799H121.009L358.767 36.6616L358.737 38.1615L121.324 37.3806L5.74713 152.957ZM121.119 36.3799L120.907 36.3799L5.38712 151.89L5.39357 151.896L5.74066 152.243L5.74712 152.25L121.117 36.8799L358.247 37.6599L358.257 37.1599L357.757 37.1583L357.757 37.1499L358.249 37.1599M121.119 36.3799L357.757 37.1583L121.119 36.3799Z" fill="url(#paint31_linear_14_2006)"/>
<path d="M7.77707 141.36L7.42706 141.01L120.907 27.53H121.007L358.257 28.3101L358.247 28.8101L121.117 28.03L7.77707 141.36Z" fill="url(#paint32_linear_14_2006)"/>
<path fill-rule="evenodd" clip-rule="evenodd" d="M7.77704 142.067L6.71997 141.01L120.7 27.03H121.009L358.767 27.8117L358.737 29.3117L121.323 28.5307L7.77704 142.067ZM121.119 27.53L120.907 27.53L7.42706 141.01L7.77707 141.36L121.117 28.03L358.247 28.8101L358.257 28.3101L357.757 28.3084L357.757 28.3001L358.249 28.3101M121.119 27.53L357.757 28.3084L121.119 27.53Z" fill="url(#paint33_linear_14_2006)"/>
<path d="M1.0571 139.24L0.707092 138.89L120.907 18.6899H121.007L358.257 19.47L358.247 19.97L121.117 19.1899L1.0571 139.24Z" fill="url(#paint34_linear_14_2006)"/>
<path fill-rule="evenodd" clip-rule="evenodd" d="M1.05707 139.947L0 138.89L120.7 18.1899H121.009L358.767 18.9716L358.737 20.4716L121.324 19.6906L1.05707 139.947ZM121.119 18.6899L120.907 18.6899L0.707091 138.89L1.0571 139.24L121.117 19.1899L358.247 19.97L358.257 19.47L357.757 19.4683L357.757 19.46L358.249 19.47M121.119 18.6899L357.757 19.4683L121.119 18.6899Z" fill="url(#paint35_linear_14_2006)"/>
<path d="M7.28706 124.17L6.93707 123.81L120.907 9.84009H121.007L358.257 10.6201L358.247 11.1201L121.117 10.3401L7.28706 124.17Z" fill="url(#paint36_linear_14_2006)"/>
<path fill-rule="evenodd" clip-rule="evenodd" d="M7.28207 124.882L6.23492 123.805L120.7 9.34009H121.009L358.767 10.1218L358.737 11.6217L121.324 10.8408L7.28207 124.882ZM121.119 9.84009L120.907 9.84009L6.93709 123.81L7.28708 124.17L121.117 10.3401L358.247 11.1201L358.257 10.6201L357.757 10.6185L357.757 10.6101L358.249 10.6201M121.119 9.84009L357.757 10.6185L121.119 9.84009Z" fill="url(#paint37_linear_14_2006)"/>
<path d="M6.14705 116.46L5.79706 116.11L120.907 1H121.007L358.257 1.78003L358.247 2.28003L121.117 1.5L6.14705 116.46Z" fill="url(#paint38_linear_14_2006)"/>
<path fill-rule="evenodd" clip-rule="evenodd" d="M6.14706 117.167L5.08997 116.11L120.7 0.5H121.009L358.767 1.2817L358.737 2.78164L121.323 2.00068L6.14706 117.167ZM121.119 1L120.907 1L5.79708 116.11L6.14707 116.46L121.117 1.5L358.247 2.28003L358.257 1.78003L357.757 1.77839L357.757 1.77002L358.249 1.78003M121.119 1L357.757 1.77839L121.119 1Z" fill="url(#paint39_linear_14_2006)"/>
<defs>
<linearGradient id="paint0_linear_14_2006" x1="206.357" y1="169.05" x2="206.357" y2="235.86" gradientUnits="userSpaceOnUse">
<stop stop-color="#30FF2C"/>
<stop offset="1" stop-color="#30FF2C" stop-opacity="0"/>
</linearGradient>
<linearGradient id="paint1_linear_14_2006" x1="206.259" y1="168.55" x2="206.259" y2="236.567" gradientUnits="userSpaceOnUse">
<stop stop-color="#30FF2C"/>
<stop offset="1" stop-color="#30FF2C" stop-opacity="0"/>
</linearGradient>
<linearGradient id="paint2_linear_14_2006" x1="201.382" y1="160.21" x2="201.382" y2="236.96" gradientUnits="userSpaceOnUse">
<stop stop-color="#30FF2C"/>
<stop offset="1" stop-color="#30FF2C" stop-opacity="0"/>
</linearGradient>
<linearGradient id="paint3_linear_14_2006" x1="201.284" y1="159.71" x2="201.284" y2="237.667" gradientUnits="userSpaceOnUse">
<stop stop-color="#30FF2C"/>
<stop offset="1" stop-color="#30FF2C" stop-opacity="0"/>
</linearGradient>
<linearGradient id="paint4_linear_14_2006" x1="199.767" y1="151.36" x2="199.767" y2="231.35" gradientUnits="userSpaceOnUse">
<stop stop-color="#30FF2C"/>
<stop offset="1" stop-color="#30FF2C" stop-opacity="0"/>
</linearGradient>
<linearGradient id="paint5_linear_14_2006" x1="199.671" y1="150.86" x2="199.671" y2="232.062" gradientUnits="userSpaceOnUse">
<stop stop-color="#30FF2C"/>
<stop offset="1" stop-color="#30FF2C" stop-opacity="0"/>
</linearGradient>
<linearGradient id="paint6_linear_14_2006" x1="191.557" y1="142.52" x2="191.557" y2="238.92" gradientUnits="userSpaceOnUse">
<stop stop-color="#30FF2C"/>
<stop offset="1" stop-color="#30FF2C" stop-opacity="0"/>
</linearGradient>
<linearGradient id="paint7_linear_14_2006" x1="191.459" y1="142.02" x2="191.459" y2="239.627" gradientUnits="userSpaceOnUse">
<stop stop-color="#30FF2C"/>
<stop offset="1" stop-color="#30FF2C" stop-opacity="0"/>
</linearGradient>
<linearGradient id="paint8_linear_14_2006" x1="190.177" y1="133.67" x2="190.177" y2="232.83" gradientUnits="userSpaceOnUse">
<stop stop-color="#30FF2C"/>
<stop offset="1" stop-color="#30FF2C" stop-opacity="0"/>
</linearGradient>
<linearGradient id="paint9_linear_14_2006" x1="190.079" y1="133.17" x2="190.079" y2="233.537" gradientUnits="userSpaceOnUse">
<stop stop-color="#30FF2C"/>
<stop offset="1" stop-color="#30FF2C" stop-opacity="0"/>
</linearGradient>
<linearGradient id="paint10_linear_14_2006" x1="185.717" y1="124.83" x2="185.717" y2="232.91" gradientUnits="userSpaceOnUse">
<stop stop-color="#30FF2C"/>
<stop offset="1" stop-color="#30FF2C" stop-opacity="0"/>
</linearGradient>
<linearGradient id="paint11_linear_14_2006" x1="185.619" y1="124.33" x2="185.619" y2="233.617" gradientUnits="userSpaceOnUse">
<stop stop-color="#30FF2C"/>
<stop offset="1" stop-color="#30FF2C" stop-opacity="0"/>
</linearGradient>
<linearGradient id="paint12_linear_14_2006" x1="184.047" y1="115.98" x2="184.047" y2="227.4" gradientUnits="userSpaceOnUse">
<stop stop-color="#30FF2C"/>
<stop offset="1" stop-color="#30FF2C" stop-opacity="0"/>
</linearGradient>
<linearGradient id="paint13_linear_14_2006" x1="183.946" y1="115.48" x2="183.946" y2="228.102" gradientUnits="userSpaceOnUse">
<stop stop-color="#30FF2C"/>
<stop offset="1" stop-color="#30FF2C" stop-opacity="0"/>
</linearGradient>
<linearGradient id="paint14_linear_14_2006" x1="180.382" y1="107.14" x2="180.382" y2="225.89" gradientUnits="userSpaceOnUse">
<stop stop-color="#30FF2C"/>
<stop offset="1" stop-color="#30FF2C" stop-opacity="0"/>
</linearGradient>
<linearGradient id="paint15_linear_14_2006" x1="180.284" y1="106.64" x2="180.284" y2="226.597" gradientUnits="userSpaceOnUse">
<stop stop-color="#30FF2C"/>
<stop offset="1" stop-color="#30FF2C" stop-opacity="0"/>
</linearGradient>
<linearGradient id="paint16_linear_14_2006" x1="180.862" y1="98.29" x2="180.862" y2="216.08" gradientUnits="userSpaceOnUse">
<stop stop-color="#30FF2C"/>
<stop offset="1" stop-color="#30FF2C" stop-opacity="0"/>
</linearGradient>
<linearGradient id="paint17_linear_14_2006" x1="180.761" y1="97.79" x2="180.761" y2="216.782" gradientUnits="userSpaceOnUse">
<stop stop-color="#30FF2C"/>
<stop offset="1" stop-color="#30FF2C" stop-opacity="0"/>
</linearGradient>
<linearGradient id="paint18_linear_14_2006" x1="182.007" y1="89.45" x2="182.007" y2="204.95" gradientUnits="userSpaceOnUse">
<stop stop-color="#30FF2C"/>
<stop offset="1" stop-color="#30FF2C" stop-opacity="0"/>
</linearGradient>
<linearGradient id="paint19_linear_14_2006" x1="181.909" y1="88.95" x2="181.909" y2="205.657" gradientUnits="userSpaceOnUse">
<stop stop-color="#30FF2C"/>
<stop offset="1" stop-color="#30FF2C" stop-opacity="0"/>
</linearGradient>
<linearGradient id="paint20_linear_14_2006" x1="182.567" y1="80.6001" x2="182.567" y2="194.98" gradientUnits="userSpaceOnUse">
<stop stop-color="#30FF2C"/>
<stop offset="1" stop-color="#30FF2C" stop-opacity="0"/>
</linearGradient>
<linearGradient id="paint21_linear_14_2006" x1="182.466" y1="80.1001" x2="182.466" y2="195.682" gradientUnits="userSpaceOnUse">
<stop stop-color="#30FF2C"/>
<stop offset="1" stop-color="#30FF2C" stop-opacity="0"/>
</linearGradient>
<linearGradient id="paint22_linear_14_2006" x1="182.017" y1="71.76" x2="182.017" y2="187.24" gradientUnits="userSpaceOnUse">
<stop stop-color="#30FF2C"/>
<stop offset="1" stop-color="#30FF2C" stop-opacity="0"/>
</linearGradient>
<linearGradient id="paint23_linear_14_2006" x1="181.919" y1="71.26" x2="181.919" y2="187.947" gradientUnits="userSpaceOnUse">
<stop stop-color="#30FF2C"/>
<stop offset="1" stop-color="#30FF2C" stop-opacity="0"/>
</linearGradient>
<linearGradient id="paint24_linear_14_2006" x1="181.662" y1="62.9102" x2="181.662" y2="179.11" gradientUnits="userSpaceOnUse">
<stop stop-color="#30FF2C"/>
<stop offset="1" stop-color="#30FF2C" stop-opacity="0"/>
</linearGradient>
<linearGradient id="paint25_linear_14_2006" x1="181.566" y1="62.4102" x2="181.566" y2="179.822" gradientUnits="userSpaceOnUse">
<stop stop-color="#30FF2C"/>
<stop offset="1" stop-color="#30FF2C" stop-opacity="0"/>
</linearGradient>
<linearGradient id="paint26_linear_14_2006" x1="182.027" y1="54.0701" x2="182.027" y2="169.53" gradientUnits="userSpaceOnUse">
<stop stop-color="#30FF2C"/>
<stop offset="1" stop-color="#30FF2C" stop-opacity="0"/>
</linearGradient>
<linearGradient id="paint27_linear_14_2006" x1="181.928" y1="53.5701" x2="181.928" y2="170.237" gradientUnits="userSpaceOnUse">
<stop stop-color="#30FF2C"/>
<stop offset="1" stop-color="#30FF2C" stop-opacity="0"/>
</linearGradient>
<linearGradient id="paint28_linear_14_2006" x1="181.857" y1="45.22" x2="181.857" y2="161.02" gradientUnits="userSpaceOnUse">
<stop stop-color="#30FF2C"/>
<stop offset="1" stop-color="#30FF2C" stop-opacity="0"/>
</linearGradient>
<linearGradient id="paint29_linear_14_2006" x1="181.759" y1="44.72" x2="181.759" y2="161.727" gradientUnits="userSpaceOnUse">
<stop stop-color="#30FF2C"/>
<stop offset="1" stop-color="#30FF2C" stop-opacity="0"/>
</linearGradient>
<linearGradient id="paint30_linear_14_2006" x1="181.822" y1="36.3799" x2="181.822" y2="152.25" gradientUnits="userSpaceOnUse">
<stop stop-color="#30FF2C"/>
<stop offset="1" stop-color="#30FF2C" stop-opacity="0"/>
</linearGradient>
<linearGradient id="paint31_linear_14_2006" x1="181.724" y1="35.8799" x2="181.724" y2="152.957" gradientUnits="userSpaceOnUse">
<stop stop-color="#30FF2C"/>
<stop offset="1" stop-color="#30FF2C" stop-opacity="0"/>
</linearGradient>
<linearGradient id="paint32_linear_14_2006" x1="182.842" y1="27.53" x2="182.842" y2="141.36" gradientUnits="userSpaceOnUse">
<stop stop-color="#30FF2C"/>
<stop offset="1" stop-color="#30FF2C" stop-opacity="0"/>
</linearGradient>
<linearGradient id="paint33_linear_14_2006" x1="182.744" y1="27.03" x2="182.744" y2="142.067" gradientUnits="userSpaceOnUse">
<stop stop-color="#30FF2C"/>
<stop offset="1" stop-color="#30FF2C" stop-opacity="0"/>
</linearGradient>
<linearGradient id="paint34_linear_14_2006" x1="179.482" y1="18.6899" x2="179.482" y2="139.24" gradientUnits="userSpaceOnUse">
<stop stop-color="#30FF2C"/>
<stop offset="1" stop-color="#30FF2C" stop-opacity="0"/>
</linearGradient>
<linearGradient id="paint35_linear_14_2006" x1="179.384" y1="18.1899" x2="179.384" y2="139.947" gradientUnits="userSpaceOnUse">
<stop stop-color="#30FF2C"/>
<stop offset="1" stop-color="#30FF2C" stop-opacity="0"/>
</linearGradient>
<linearGradient id="paint36_linear_14_2006" x1="182.597" y1="9.84009" x2="182.597" y2="124.17" gradientUnits="userSpaceOnUse">
<stop stop-color="#30FF2C"/>
<stop offset="1" stop-color="#30FF2C" stop-opacity="0"/>
</linearGradient>
<linearGradient id="paint37_linear_14_2006" x1="182.501" y1="9.34009" x2="182.501" y2="124.882" gradientUnits="userSpaceOnUse">
<stop stop-color="#30FF2C"/>
<stop offset="1" stop-color="#30FF2C" stop-opacity="0"/>
</linearGradient>
<linearGradient id="paint38_linear_14_2006" x1="182.027" y1="1" x2="182.027" y2="116.46" gradientUnits="userSpaceOnUse">
<stop stop-color="#30FF2C"/>
<stop offset="1" stop-color="#30FF2C" stop-opacity="0"/>
</linearGradient>
<linearGradient id="paint39_linear_14_2006" x1="181.929" y1="0.5" x2="181.929" y2="117.167" gradientUnits="userSpaceOnUse">
<stop stop-color="#30FF2C"/>
<stop offset="1" stop-color="#30FF2C" stop-opacity="0"/>
</linearGradient>
</defs>
</svg>
