<svg width="359" height="240" viewBox="0 0 359 240" fill="none" xmlns="http://www.w3.org/2000/svg">
<path d="M303.96 235.86L304.31 235.51L237.86 169.05H237.76L0.510132 169.83L0.520142 170.33L237.65 169.55L303.96 235.86Z" fill="url(#paint0_linear_14_2005)"/>
<path fill-rule="evenodd" clip-rule="evenodd" d="M303.96 236.567L305.017 235.51L238.067 168.55H237.758L6.10352e-05 169.332L0.0300903 170.832L237.444 170.051L303.96 236.567ZM237.648 169.05L237.86 169.05L304.31 235.51L303.96 235.86L237.65 169.55L0.520142 170.33L0.510132 169.83L1.01019 169.828L1.01004 169.82L0.518494 169.83M237.648 169.05L1.01019 169.828L237.648 169.05Z" fill="url(#paint1_linear_14_2005)"/>
<path d="M313.91 236.96L314.26 236.61L237.86 160.21H237.76L0.510071 160.99L0.520081 161.49L237.65 160.71L313.91 236.96Z" fill="url(#paint2_linear_14_2005)"/>
<path fill-rule="evenodd" clip-rule="evenodd" d="M313.91 237.667L314.967 236.61L238.067 159.71H237.758L-3.05176e-05 160.492L0.0299988 161.992L237.444 161.211L313.91 237.667ZM237.648 160.21L237.86 160.21L314.26 236.61L313.91 236.96L237.65 160.71L0.52005 161.49L0.51004 160.99L1.0101 160.988L1.00995 160.98L0.518402 160.99M237.648 160.21L1.0101 160.988L237.648 160.21Z" fill="url(#paint3_linear_14_2005)"/>
<path d="M317.14 231.35L317.49 230.99L237.86 151.36H237.76L0.510071 152.14L0.520081 152.64L237.65 151.86L317.14 231.35Z" fill="url(#paint4_linear_14_2005)"/>
<path fill-rule="evenodd" clip-rule="evenodd" d="M317.145 232.062L318.192 230.985L238.067 150.86H237.758L-3.05176e-05 151.642L0.0299988 153.142L237.444 152.361L317.145 232.062ZM237.648 151.36L237.86 151.36L317.49 230.99L317.14 231.35L237.65 151.86L0.52005 152.64L0.51004 152.14L1.0101 152.138L1.00995 152.13L0.518402 152.14M237.648 151.36L1.0101 152.138L237.648 151.36Z" fill="url(#paint5_linear_14_2005)"/>
<path d="M333.56 238.92L333.91 238.57L237.86 142.52H237.76L0.510132 143.3L0.520142 143.8L237.65 143.02L333.56 238.92Z" fill="url(#paint6_linear_14_2005)"/>
<path fill-rule="evenodd" clip-rule="evenodd" d="M333.56 239.627L334.617 238.57L238.067 142.02H237.758L6.10352e-05 142.802L0.0300903 144.302L237.444 143.521L333.56 239.627ZM237.648 142.52L237.86 142.52L333.91 238.57L333.56 238.92L237.65 143.02L0.520142 143.8L0.510132 143.3L1.01019 143.298L1.01004 143.29L0.518494 143.3M237.648 142.52L1.01019 143.298L237.648 142.52Z" fill="url(#paint7_linear_14_2005)"/>
<path d="M336.32 232.83L336.67 232.48L237.86 133.67H237.76L0.510132 134.45L0.520142 134.95L237.65 134.17L336.32 232.83Z" fill="url(#paint8_linear_14_2005)"/>
<path fill-rule="evenodd" clip-rule="evenodd" d="M336.32 233.537L337.377 232.48L238.067 133.17H237.758L3.05176e-05 133.952L0.0300598 135.452L237.444 134.671L336.32 233.537ZM237.648 133.67L237.86 133.67L336.67 232.48L336.32 232.83L237.65 134.17L0.520111 134.95L0.510101 134.45L1.01016 134.448L1.01001 134.44L0.518463 134.45M237.648 133.67L1.01016 134.448L237.648 133.67Z" fill="url(#paint9_linear_14_2005)"/>
<path d="M345.24 232.91L345.59 232.56L237.86 124.83H237.76L0.510162 125.61L0.520172 126.11L237.65 125.33L345.24 232.91Z" fill="url(#paint10_linear_14_2005)"/>
<path fill-rule="evenodd" clip-rule="evenodd" d="M345.24 233.617L346.297 232.56L238.067 124.33H237.758L6.10352e-05 125.112L0.0300903 126.612L237.444 125.831L345.24 233.617ZM237.648 124.83L237.86 124.83L345.59 232.56L345.24 232.91L237.65 125.33L0.520142 126.11L0.510132 125.61L1.01019 125.608L1.01004 125.6L0.518494 125.61M237.648 124.83L1.01019 125.608L237.648 124.83Z" fill="url(#paint11_linear_14_2005)"/>
<path d="M348.57 227.4L348.93 227.05L237.86 115.98H237.76L0.510132 116.76L0.520142 117.26L237.65 116.48L348.57 227.4Z" fill="url(#paint12_linear_14_2005)"/>
<path fill-rule="evenodd" clip-rule="evenodd" d="M348.565 228.102L349.642 227.055L238.067 115.48H237.758L9.15527e-05 116.262L0.0301208 117.762L237.444 116.981L348.565 228.102ZM237.648 115.98L237.86 115.98L348.93 227.05L348.572 227.399L348.57 227.4L237.65 116.48L0.520172 117.26L0.510162 116.76L1.01022 116.758L1.01007 116.75L0.518524 116.76M237.648 115.98L1.01022 116.758L237.648 115.98Z" fill="url(#paint13_linear_14_2005)"/>
<path d="M355.9 225.89L356.26 225.53L237.86 107.14H237.76L0.510071 107.92L0.520081 108.42L237.65 107.64L355.9 225.89Z" fill="url(#paint14_linear_14_2005)"/>
<path fill-rule="evenodd" clip-rule="evenodd" d="M355.9 226.597L356.967 225.53L238.067 106.64H237.758L3.05176e-05 107.422L0.0300598 108.922L237.444 108.141L355.9 226.597ZM237.648 107.14L237.86 107.14L356.26 225.53L356.254 225.537L355.907 225.884L355.9 225.89L237.65 107.64L0.520111 108.42L0.510101 107.92L1.01016 107.919L1.01001 107.91L0.518463 107.92M237.648 107.14L1.01016 107.919L237.648 107.14Z" fill="url(#paint15_linear_14_2005)"/>
<path d="M354.94 216.08L355.3 215.73L237.86 98.29H237.76L0.510132 99.07L0.520142 99.57L237.65 98.79L354.94 216.08Z" fill="url(#paint16_linear_14_2005)"/>
<path fill-rule="evenodd" clip-rule="evenodd" d="M354.935 216.782L356.012 215.735L238.067 97.79H237.758L9.15527e-05 98.5717L0.0301208 100.072L237.444 99.2907L354.935 216.782ZM237.648 98.29L237.86 98.29L355.3 215.73L354.942 216.079L354.94 216.08L237.65 98.79L0.520172 99.57L0.510162 99.07L1.01022 99.0684L1.01007 99.06L0.518524 99.07M237.648 98.29L1.01022 99.0684L237.648 98.29Z" fill="url(#paint17_linear_14_2005)"/>
<path d="M352.66 204.95L353.01 204.6L237.86 89.45H237.76L0.510071 90.23L0.520081 90.73L237.65 89.95L352.66 204.95Z" fill="url(#paint18_linear_14_2005)"/>
<path fill-rule="evenodd" clip-rule="evenodd" d="M352.66 205.657L353.717 204.6L238.067 88.95H237.758L3.05176e-05 89.7317L0.0300598 91.2316L237.444 90.4506L352.66 205.657ZM237.648 89.45L237.86 89.45L353.01 204.6L352.66 204.95L237.65 89.95L0.520111 90.73L0.510101 90.23L1.01016 90.2283L1.01001 90.22L0.518463 90.23M237.648 89.45L1.01016 90.2283L237.648 89.45Z" fill="url(#paint19_linear_14_2005)"/>
<path d="M351.53 194.98L351.89 194.63L237.86 80.6001H237.76L0.510071 81.3801L0.520081 81.8801L237.65 81.1001L351.53 194.98Z" fill="url(#paint20_linear_14_2005)"/>
<path fill-rule="evenodd" clip-rule="evenodd" d="M351.525 195.682L352.602 194.635L238.067 80.1001H237.758L0 80.8817L0.0300293 82.3817L237.444 81.6008L351.525 195.682ZM237.648 80.6001L237.86 80.6001L351.89 194.63L351.53 194.98L237.65 81.1001L0.520081 81.8801L0.510071 81.3801L1.01013 81.3784L1.00998 81.3701L0.518433 81.3801M237.648 80.6001L1.01013 81.3784L237.648 80.6001Z" fill="url(#paint21_linear_14_2005)"/>
<path d="M352.64 187.24L352.99 186.89L237.86 71.76H237.76L0.510071 72.54L0.520081 73.04L237.65 72.26L352.64 187.24Z" fill="url(#paint22_linear_14_2005)"/>
<path fill-rule="evenodd" clip-rule="evenodd" d="M352.64 187.947L353.697 186.89L238.067 71.26H237.758L0 72.0417L0.0300293 73.5417L237.444 72.7607L352.64 187.947ZM237.648 71.76L237.86 71.76L352.99 186.89L352.64 187.24L237.65 72.26L0.520081 73.04L0.510071 72.54L1.01013 72.5384L1.00998 72.53L0.518433 72.54M237.648 71.76L1.01013 72.5384L237.648 71.76Z" fill="url(#paint23_linear_14_2005)"/>
<path d="M353.35 179.11L353.7 178.75L237.86 62.9102H237.76L0.510132 63.6901L0.520142 64.1901L237.65 63.4102L353.35 179.11Z" fill="url(#paint24_linear_14_2005)"/>
<path fill-rule="evenodd" clip-rule="evenodd" d="M353.355 179.822L354.402 178.745L238.067 62.4102H237.758L6.10352e-05 63.1918L0.0300903 64.6917L237.444 63.9108L353.355 179.822ZM237.648 62.9102L237.86 62.9102L353.7 178.75L353.35 179.11L237.65 63.4102L0.520142 64.1901L0.510132 63.6901L1.01019 63.6885L1.01004 63.6801L0.518494 63.6901M237.648 62.9102L1.01019 63.6885L237.648 62.9102Z" fill="url(#paint25_linear_14_2005)"/>
<path d="M352.61 169.53L352.97 169.17L237.86 54.0701H237.76L0.510193 54.8501L0.520203 55.3501L237.65 54.5701L352.61 169.53Z" fill="url(#paint26_linear_14_2005)"/>
<path fill-rule="evenodd" clip-rule="evenodd" d="M352.61 170.237L353.677 169.17L238.067 53.5701H237.759L0.000152588 54.3518L0.0301819 55.8517L237.444 55.0708L352.61 170.237ZM237.649 54.0701L237.86 54.0701L352.97 169.17L352.964 169.177L352.617 169.524L352.61 169.53L237.65 54.5701L0.520233 55.3501L0.510223 54.8501L1.01028 54.8485L1.01013 54.8401L0.518585 54.8501M237.649 54.0701L1.01028 54.8485L237.649 54.0701Z" fill="url(#paint27_linear_14_2005)"/>
<path d="M352.96 161.02L353.31 160.67L237.86 45.22H237.76L0.510132 45.9999L0.520142 46.4999L237.65 45.72L352.96 161.02Z" fill="url(#paint28_linear_14_2005)"/>
<path fill-rule="evenodd" clip-rule="evenodd" d="M352.96 161.727L354.017 160.67L238.067 44.72H237.758L9.15527e-05 45.5016L0.0301208 47.0016L237.444 46.2207L352.96 161.727ZM237.648 45.22L237.86 45.22L353.31 160.67L352.96 161.02L237.65 45.72L0.520172 46.4999L0.510162 45.9999L1.01022 45.9983L1.01007 45.9899L0.518524 45.9999M237.648 45.22L1.01022 45.9983L237.648 45.22Z" fill="url(#paint29_linear_14_2005)"/>
<path d="M353.02 152.25L353.38 151.89L237.86 36.3799H237.76L0.510071 37.1599L0.520081 37.6599L237.65 36.8799L353.02 152.25Z" fill="url(#paint30_linear_14_2005)"/>
<path fill-rule="evenodd" clip-rule="evenodd" d="M353.02 152.957L354.087 151.89L238.067 35.8799H237.758L3.05176e-05 36.6616L0.0300598 38.1615L237.444 37.3806L353.02 152.957ZM237.648 36.3799L237.86 36.3799L353.38 151.89L353.374 151.896L353.027 152.243L353.02 152.25L237.65 36.8799L0.520111 37.6599L0.510101 37.1599L1.01016 37.1583L1.01001 37.1499L0.518463 37.1599M237.648 36.3799L1.01016 37.1583L237.648 36.3799Z" fill="url(#paint31_linear_14_2005)"/>
<path d="M350.99 141.36L351.34 141.01L237.86 27.53H237.76L0.510162 28.3101L0.520172 28.8101L237.65 28.03L350.99 141.36Z" fill="url(#paint32_linear_14_2005)"/>
<path fill-rule="evenodd" clip-rule="evenodd" d="M350.99 142.067L352.047 141.01L238.067 27.03H237.758L9.15527e-05 27.8117L0.0301208 29.3117L237.444 28.5307L350.99 142.067ZM237.648 27.53L237.86 27.53L351.34 141.01L350.99 141.36L237.65 28.03L0.520172 28.8101L0.510162 28.3101L1.01022 28.3084L1.01007 28.3001L0.518524 28.3101M237.648 27.53L1.01022 28.3084L237.648 27.53Z" fill="url(#paint33_linear_14_2005)"/>
<path d="M357.71 139.24L358.06 138.89L237.86 18.6899H237.76L0.510132 19.47L0.520142 19.97L237.65 19.1899L357.71 139.24Z" fill="url(#paint34_linear_14_2005)"/>
<path fill-rule="evenodd" clip-rule="evenodd" d="M357.71 139.947L358.767 138.89L238.067 18.1899H237.758L6.10352e-05 18.9716L0.0300903 20.4716L237.444 19.6906L357.71 139.947ZM237.648 18.6899L237.86 18.6899L358.06 138.89L357.71 139.24L237.65 19.1899L0.520142 19.97L0.510132 19.47L1.01019 19.4683L1.01004 19.46L0.518494 19.47M237.648 18.6899L1.01019 19.4683L237.648 18.6899Z" fill="url(#paint35_linear_14_2005)"/>
<path d="M351.48 124.17L351.83 123.81L237.86 9.84009H237.76L0.510162 10.6201L0.520172 11.1201L237.65 10.3401L351.48 124.17Z" fill="url(#paint36_linear_14_2005)"/>
<path fill-rule="evenodd" clip-rule="evenodd" d="M351.485 124.882L352.532 123.805L238.067 9.34009H237.758L6.10352e-05 10.1218L0.0300903 11.6217L237.444 10.8408L351.485 124.882ZM237.648 9.84009L237.86 9.84009L351.83 123.81L351.48 124.17L237.65 10.3401L0.520142 11.1201L0.510132 10.6201L1.01019 10.6185L1.01004 10.6101L0.518494 10.6201M237.648 9.84009L1.01019 10.6185L237.648 9.84009Z" fill="url(#paint37_linear_14_2005)"/>
<path d="M352.62 116.46L352.97 116.11L237.86 1H237.76L0.510193 1.78003L0.520203 2.28003L237.65 1.5L352.62 116.46Z" fill="url(#paint38_linear_14_2005)"/>
<path fill-rule="evenodd" clip-rule="evenodd" d="M352.62 117.167L353.677 116.11L238.067 0.5H237.758L9.15527e-05 1.2817L0.0301208 2.78164L237.444 2.00068L352.62 117.167ZM237.648 1L237.86 1L352.97 116.11L352.62 116.46L237.65 1.5L0.520172 2.28003L0.510162 1.78003L1.01022 1.77839L1.01007 1.77002L0.518524 1.78003M237.648 1L1.01022 1.77839L237.648 1Z" fill="url(#paint39_linear_14_2005)"/>
<defs>
<linearGradient id="paint0_linear_14_2005" x1="152.41" y1="169.05" x2="152.41" y2="235.86" gradientUnits="userSpaceOnUse">
<stop stop-color="#30FF2C"/>
<stop offset="1" stop-color="#30FF2C" stop-opacity="0"/>
</linearGradient>
<linearGradient id="paint1_linear_14_2005" x1="152.509" y1="168.55" x2="152.509" y2="236.567" gradientUnits="userSpaceOnUse">
<stop stop-color="#30FF2C"/>
<stop offset="1" stop-color="#30FF2C" stop-opacity="0"/>
</linearGradient>
<linearGradient id="paint2_linear_14_2005" x1="157.385" y1="160.21" x2="157.385" y2="236.96" gradientUnits="userSpaceOnUse">
<stop stop-color="#30FF2C"/>
<stop offset="1" stop-color="#30FF2C" stop-opacity="0"/>
</linearGradient>
<linearGradient id="paint3_linear_14_2005" x1="157.484" y1="159.71" x2="157.484" y2="237.667" gradientUnits="userSpaceOnUse">
<stop stop-color="#30FF2C"/>
<stop offset="1" stop-color="#30FF2C" stop-opacity="0"/>
</linearGradient>
<linearGradient id="paint4_linear_14_2005" x1="159" y1="151.36" x2="159" y2="231.35" gradientUnits="userSpaceOnUse">
<stop stop-color="#30FF2C"/>
<stop offset="1" stop-color="#30FF2C" stop-opacity="0"/>
</linearGradient>
<linearGradient id="paint5_linear_14_2005" x1="159.096" y1="150.86" x2="159.096" y2="232.062" gradientUnits="userSpaceOnUse">
<stop stop-color="#30FF2C"/>
<stop offset="1" stop-color="#30FF2C" stop-opacity="0"/>
</linearGradient>
<linearGradient id="paint6_linear_14_2005" x1="167.21" y1="142.52" x2="167.21" y2="238.92" gradientUnits="userSpaceOnUse">
<stop stop-color="#30FF2C"/>
<stop offset="1" stop-color="#30FF2C" stop-opacity="0"/>
</linearGradient>
<linearGradient id="paint7_linear_14_2005" x1="167.309" y1="142.02" x2="167.309" y2="239.627" gradientUnits="userSpaceOnUse">
<stop stop-color="#30FF2C"/>
<stop offset="1" stop-color="#30FF2C" stop-opacity="0"/>
</linearGradient>
<linearGradient id="paint8_linear_14_2005" x1="168.59" y1="133.67" x2="168.59" y2="232.83" gradientUnits="userSpaceOnUse">
<stop stop-color="#30FF2C"/>
<stop offset="1" stop-color="#30FF2C" stop-opacity="0"/>
</linearGradient>
<linearGradient id="paint9_linear_14_2005" x1="168.689" y1="133.17" x2="168.689" y2="233.537" gradientUnits="userSpaceOnUse">
<stop stop-color="#30FF2C"/>
<stop offset="1" stop-color="#30FF2C" stop-opacity="0"/>
</linearGradient>
<linearGradient id="paint10_linear_14_2005" x1="173.05" y1="124.83" x2="173.05" y2="232.91" gradientUnits="userSpaceOnUse">
<stop stop-color="#30FF2C"/>
<stop offset="1" stop-color="#30FF2C" stop-opacity="0"/>
</linearGradient>
<linearGradient id="paint11_linear_14_2005" x1="173.149" y1="124.33" x2="173.149" y2="233.617" gradientUnits="userSpaceOnUse">
<stop stop-color="#30FF2C"/>
<stop offset="1" stop-color="#30FF2C" stop-opacity="0"/>
</linearGradient>
<linearGradient id="paint12_linear_14_2005" x1="174.72" y1="115.98" x2="174.72" y2="227.4" gradientUnits="userSpaceOnUse">
<stop stop-color="#30FF2C"/>
<stop offset="1" stop-color="#30FF2C" stop-opacity="0"/>
</linearGradient>
<linearGradient id="paint13_linear_14_2005" x1="174.821" y1="115.48" x2="174.821" y2="228.102" gradientUnits="userSpaceOnUse">
<stop stop-color="#30FF2C"/>
<stop offset="1" stop-color="#30FF2C" stop-opacity="0"/>
</linearGradient>
<linearGradient id="paint14_linear_14_2005" x1="178.385" y1="107.14" x2="178.385" y2="225.89" gradientUnits="userSpaceOnUse">
<stop stop-color="#30FF2C"/>
<stop offset="1" stop-color="#30FF2C" stop-opacity="0"/>
</linearGradient>
<linearGradient id="paint15_linear_14_2005" x1="178.484" y1="106.64" x2="178.484" y2="226.597" gradientUnits="userSpaceOnUse">
<stop stop-color="#30FF2C"/>
<stop offset="1" stop-color="#30FF2C" stop-opacity="0"/>
</linearGradient>
<linearGradient id="paint16_linear_14_2005" x1="177.905" y1="98.29" x2="177.905" y2="216.08" gradientUnits="userSpaceOnUse">
<stop stop-color="#30FF2C"/>
<stop offset="1" stop-color="#30FF2C" stop-opacity="0"/>
</linearGradient>
<linearGradient id="paint17_linear_14_2005" x1="178.006" y1="97.79" x2="178.006" y2="216.782" gradientUnits="userSpaceOnUse">
<stop stop-color="#30FF2C"/>
<stop offset="1" stop-color="#30FF2C" stop-opacity="0"/>
</linearGradient>
<linearGradient id="paint18_linear_14_2005" x1="176.76" y1="89.45" x2="176.76" y2="204.95" gradientUnits="userSpaceOnUse">
<stop stop-color="#30FF2C"/>
<stop offset="1" stop-color="#30FF2C" stop-opacity="0"/>
</linearGradient>
<linearGradient id="paint19_linear_14_2005" x1="176.859" y1="88.95" x2="176.859" y2="205.657" gradientUnits="userSpaceOnUse">
<stop stop-color="#30FF2C"/>
<stop offset="1" stop-color="#30FF2C" stop-opacity="0"/>
</linearGradient>
<linearGradient id="paint20_linear_14_2005" x1="176.2" y1="80.6001" x2="176.2" y2="194.98" gradientUnits="userSpaceOnUse">
<stop stop-color="#30FF2C"/>
<stop offset="1" stop-color="#30FF2C" stop-opacity="0"/>
</linearGradient>
<linearGradient id="paint21_linear_14_2005" x1="176.301" y1="80.1001" x2="176.301" y2="195.682" gradientUnits="userSpaceOnUse">
<stop stop-color="#30FF2C"/>
<stop offset="1" stop-color="#30FF2C" stop-opacity="0"/>
</linearGradient>
<linearGradient id="paint22_linear_14_2005" x1="176.75" y1="71.76" x2="176.75" y2="187.24" gradientUnits="userSpaceOnUse">
<stop stop-color="#30FF2C"/>
<stop offset="1" stop-color="#30FF2C" stop-opacity="0"/>
</linearGradient>
<linearGradient id="paint23_linear_14_2005" x1="176.849" y1="71.26" x2="176.849" y2="187.947" gradientUnits="userSpaceOnUse">
<stop stop-color="#30FF2C"/>
<stop offset="1" stop-color="#30FF2C" stop-opacity="0"/>
</linearGradient>
<linearGradient id="paint24_linear_14_2005" x1="177.105" y1="62.9102" x2="177.105" y2="179.11" gradientUnits="userSpaceOnUse">
<stop stop-color="#30FF2C"/>
<stop offset="1" stop-color="#30FF2C" stop-opacity="0"/>
</linearGradient>
<linearGradient id="paint25_linear_14_2005" x1="177.201" y1="62.4102" x2="177.201" y2="179.822" gradientUnits="userSpaceOnUse">
<stop stop-color="#30FF2C"/>
<stop offset="1" stop-color="#30FF2C" stop-opacity="0"/>
</linearGradient>
<linearGradient id="paint26_linear_14_2005" x1="176.74" y1="54.0701" x2="176.74" y2="169.53" gradientUnits="userSpaceOnUse">
<stop stop-color="#30FF2C"/>
<stop offset="1" stop-color="#30FF2C" stop-opacity="0"/>
</linearGradient>
<linearGradient id="paint27_linear_14_2005" x1="176.839" y1="53.5701" x2="176.839" y2="170.237" gradientUnits="userSpaceOnUse">
<stop stop-color="#30FF2C"/>
<stop offset="1" stop-color="#30FF2C" stop-opacity="0"/>
</linearGradient>
<linearGradient id="paint28_linear_14_2005" x1="176.91" y1="45.22" x2="176.91" y2="161.02" gradientUnits="userSpaceOnUse">
<stop stop-color="#30FF2C"/>
<stop offset="1" stop-color="#30FF2C" stop-opacity="0"/>
</linearGradient>
<linearGradient id="paint29_linear_14_2005" x1="177.009" y1="44.72" x2="177.009" y2="161.727" gradientUnits="userSpaceOnUse">
<stop stop-color="#30FF2C"/>
<stop offset="1" stop-color="#30FF2C" stop-opacity="0"/>
</linearGradient>
<linearGradient id="paint30_linear_14_2005" x1="176.945" y1="36.3799" x2="176.945" y2="152.25" gradientUnits="userSpaceOnUse">
<stop stop-color="#30FF2C"/>
<stop offset="1" stop-color="#30FF2C" stop-opacity="0"/>
</linearGradient>
<linearGradient id="paint31_linear_14_2005" x1="177.044" y1="35.8799" x2="177.044" y2="152.957" gradientUnits="userSpaceOnUse">
<stop stop-color="#30FF2C"/>
<stop offset="1" stop-color="#30FF2C" stop-opacity="0"/>
</linearGradient>
<linearGradient id="paint32_linear_14_2005" x1="175.925" y1="27.53" x2="175.925" y2="141.36" gradientUnits="userSpaceOnUse">
<stop stop-color="#30FF2C"/>
<stop offset="1" stop-color="#30FF2C" stop-opacity="0"/>
</linearGradient>
<linearGradient id="paint33_linear_14_2005" x1="176.024" y1="27.03" x2="176.024" y2="142.067" gradientUnits="userSpaceOnUse">
<stop stop-color="#30FF2C"/>
<stop offset="1" stop-color="#30FF2C" stop-opacity="0"/>
</linearGradient>
<linearGradient id="paint34_linear_14_2005" x1="179.285" y1="18.6899" x2="179.285" y2="139.24" gradientUnits="userSpaceOnUse">
<stop stop-color="#30FF2C"/>
<stop offset="1" stop-color="#30FF2C" stop-opacity="0"/>
</linearGradient>
<linearGradient id="paint35_linear_14_2005" x1="179.384" y1="18.1899" x2="179.384" y2="139.947" gradientUnits="userSpaceOnUse">
<stop stop-color="#30FF2C"/>
<stop offset="1" stop-color="#30FF2C" stop-opacity="0"/>
</linearGradient>
<linearGradient id="paint36_linear_14_2005" x1="176.17" y1="9.84009" x2="176.17" y2="124.17" gradientUnits="userSpaceOnUse">
<stop stop-color="#30FF2C"/>
<stop offset="1" stop-color="#30FF2C" stop-opacity="0"/>
</linearGradient>
<linearGradient id="paint37_linear_14_2005" x1="176.266" y1="9.34009" x2="176.266" y2="124.882" gradientUnits="userSpaceOnUse">
<stop stop-color="#30FF2C"/>
<stop offset="1" stop-color="#30FF2C" stop-opacity="0"/>
</linearGradient>
<linearGradient id="paint38_linear_14_2005" x1="176.74" y1="1" x2="176.74" y2="116.46" gradientUnits="userSpaceOnUse">
<stop stop-color="#30FF2C"/>
<stop offset="1" stop-color="#30FF2C" stop-opacity="0"/>
</linearGradient>
<linearGradient id="paint39_linear_14_2005" x1="176.839" y1="0.5" x2="176.839" y2="117.167" gradientUnits="userSpaceOnUse">
<stop stop-color="#30FF2C"/>
<stop offset="1" stop-color="#30FF2C" stop-opacity="0"/>
</linearGradient>
</defs>
</svg>
