<svg width="29" height="28" viewBox="0 0 29 28" fill="none" xmlns="http://www.w3.org/2000/svg">
<g clip-path="url(#clip0_13_181)">
<path fill-rule="evenodd" clip-rule="evenodd" d="M28.5131 14C28.5131 21.732 22.245 28 14.5131 28C6.78108 28 0.513062 21.732 0.513062 14C0.513062 6.26801 6.78108 0 14.5131 0C22.245 0 28.5131 6.26801 28.5131 14ZM15.0148 10.3354C13.6531 10.9018 10.9316 12.0741 6.85027 13.8522C6.18753 14.1158 5.84036 14.3736 5.80876 14.6257C5.75534 15.0517 6.28889 15.2195 7.01544 15.448C7.11427 15.4791 7.21667 15.5113 7.32166 15.5454C8.03647 15.7777 8.99802 16.0496 9.4979 16.0604C9.95133 16.0702 10.4574 15.8832 11.0161 15.4996C14.8294 12.9255 16.7978 11.6244 16.9214 11.5964C17.0086 11.5766 17.1294 11.5517 17.2113 11.6245C17.2931 11.6972 17.2851 11.835 17.2764 11.872C17.2236 12.0973 15.1292 14.0444 14.0454 15.0521C13.7075 15.3662 13.4678 15.589 13.4188 15.6399C13.3091 15.7539 13.1972 15.8617 13.0897 15.9654C12.4256 16.6055 11.9276 17.0856 13.1173 17.8696C13.689 18.2463 14.1465 18.5579 14.6028 18.8687C15.1013 19.2081 15.5984 19.5466 16.2416 19.9683C16.4055 20.0757 16.562 20.1873 16.7144 20.2959C17.2945 20.7095 17.8156 21.081 18.4594 21.0217C18.8335 20.9873 19.2199 20.6355 19.4162 19.5864C19.88 17.107 20.7916 11.7349 21.0023 9.52114C21.0208 9.32718 20.9976 9.07897 20.9789 8.97C20.9603 8.86104 20.9213 8.70579 20.7797 8.59087C20.6119 8.45476 20.353 8.42606 20.2372 8.4281C19.7106 8.43737 18.9027 8.71829 15.0148 10.3354Z" fill="black"/>
</g>
<defs>
<clipPath id="clip0_13_181">
<rect width="28" height="28" fill="white" transform="translate(0.513062)"/>
</clipPath>
</defs>
</svg>
